<svg width="47" height="46" viewBox="0 0 47 46" fill="none" xmlns="http://www.w3.org/2000/svg">
    <path d="M24.4111 45.1119C23.8372 45.1119 23.2586 45.1119 22.6847 45.1119C22.5986 45.0976 22.5125 45.0785 22.4264 45.0737C21.5751 45.0163 20.7334 44.935 19.8917 44.7963C18.3183 44.538 16.7832 44.1315 15.3054 43.529C9.90606 41.3434 5.89361 37.6466 3.29198 32.4385C1.74726 29.3491 1.01555 26.0492 0.996422 22.5963C0.991639 21.8025 1.03946 21.0134 1.12076 20.2243C1.24511 19.0191 1.45553 17.8283 1.78074 16.6614C3.09112 11.9363 5.64971 8.01953 9.47086 4.95401C13.2729 1.90283 17.6344 0.272024 22.5029 0.0281206C23.8038 -0.0388332 25.1094 0.0137734 26.4054 0.18594C27.4049 0.319848 28.3997 0.50158 29.3705 0.769395C34.3777 2.15151 38.4666 4.91096 41.5848 9.0621C44.3442 12.735 45.8411 16.8766 46.0468 21.4772C46.0515 21.5442 46.0707 21.6159 46.0802 21.6829C46.0802 22.2568 46.0802 22.8355 46.0802 23.4093C46.0659 23.4906 46.0515 23.5719 46.0468 23.6485C46.0228 24.0167 46.0085 24.385 45.975 24.7532C45.8698 25.9249 45.6594 27.0775 45.3629 28.2157C43.4595 35.5567 37.8832 41.5299 30.6809 43.9307C28.8349 44.5476 26.941 44.9206 24.9994 45.0402C24.8033 45.0545 24.6072 45.088 24.4111 45.1119ZM32.2065 19.1721C32.2112 19.1386 32.2112 19.1339 32.2112 19.1291C33.8133 16.1783 35.4107 13.2276 37.0128 10.2768C37.0223 10.2625 37.0271 10.2434 37.0367 10.229C37.0415 10.2194 37.0463 10.2051 37.0463 10.1955C37.0463 10.1908 37.0463 10.186 37.0415 10.1812C37.0415 10.1764 37.0367 10.1716 37.0319 10.1668C36.7545 10.1334 21.0826 10.1477 20.9582 10.1812C20.92 10.4442 20.9343 15.8053 20.9773 15.9488C23.0816 15.9488 25.1907 15.9488 27.3332 15.9488C27.1227 16.3409 26.9219 16.7044 26.7258 17.0679C26.5297 17.4313 26.3336 17.79 26.1376 18.1487C25.9367 18.5169 25.7406 18.8804 25.5398 19.2486C25.3389 19.6169 25.1428 19.9804 24.942 20.3486C24.7459 20.7121 24.5498 21.0707 24.3537 21.4342C24.1577 21.7977 23.952 22.1563 23.7511 22.5533C23.8516 22.5533 23.9185 22.5533 23.9807 22.5533C24.239 22.5533 24.4972 22.5485 24.7555 22.5533C25.2241 22.5629 25.6928 22.582 26.1567 22.6776C27.1227 22.8737 28.0075 23.2467 28.7488 23.9115C29.7339 24.7962 30.26 25.8866 30.1405 27.2401C30.0783 27.9383 29.82 28.56 29.3561 29.0908C28.6627 29.8752 27.7588 30.2195 26.7449 30.3104C26.1854 30.3582 25.6306 30.3151 25.0807 30.2099C24.0907 30.0234 23.2251 29.5978 22.4934 28.9043C22.0247 28.4596 21.6421 27.9479 21.3312 27.3835C21.3026 27.3309 21.2882 27.264 21.2069 27.2353C20.2265 29.043 19.2461 30.846 18.2562 32.6729C18.304 32.7111 18.3518 32.7446 18.3996 32.7829C19.1505 33.4524 19.9635 34.0406 20.8482 34.5285C22.3834 35.3797 24.0237 35.8914 25.7789 36.0206C26.5776 36.078 27.3714 36.0493 28.1653 35.9297C29.3944 35.748 30.5613 35.3749 31.6613 34.7915C35.315 32.845 36.9936 29.1004 36.5393 25.3797C36.3767 24.0263 35.8746 22.8068 35.0663 21.7116C34.3346 20.7216 33.4164 19.9325 32.3738 19.2869C32.3212 19.2486 32.2638 19.2104 32.2065 19.1721ZM12.7181 25.9871C12.809 25.9871 12.8712 25.9871 12.9333 25.9871C13.3255 25.9871 13.7176 25.9871 14.1146 25.9871C15.0758 25.9871 16.0419 25.9918 17.0032 25.9823C17.4814 25.9775 17.9453 25.8723 18.3805 25.6666C19.0548 25.351 19.5187 24.8488 19.7196 24.1219C19.8057 23.8111 19.8248 23.4954 19.8009 23.1798C19.7435 22.5007 19.4804 21.922 18.9209 21.5059C18.897 21.4868 18.8731 21.4629 18.8444 21.4342C19.3131 20.9703 19.4805 20.406 19.4518 19.7747C19.4087 18.7991 18.9066 18.1487 17.974 17.857C17.5627 17.7278 17.1371 17.6896 16.7067 17.6896C13.1772 17.6896 9.65259 17.6896 6.12317 17.6896C6.06578 17.6896 6.00839 17.6944 5.94622 17.6991C5.94622 18.4213 5.94622 19.1291 5.94622 19.856C6.69228 19.856 7.42877 19.856 8.18917 19.856C8.18917 19.9564 8.18917 20.0377 8.18917 20.119C8.18917 21.9937 8.18917 23.8637 8.18917 25.7384C8.18917 25.8197 8.19874 25.8962 8.20352 25.9775C9.01653 25.9775 9.81519 25.9775 10.6282 25.9775C10.6282 25.8914 10.6282 25.8149 10.6282 25.7384C10.6282 23.8541 10.6282 21.9698 10.6282 20.0856C10.6282 20.0138 10.6378 19.9373 10.6378 19.8704C11.3456 19.8704 12.0294 19.8704 12.7277 19.8704C12.7181 21.9124 12.7133 23.9402 12.7181 25.9871Z" fill="white"/>
    <path d="M15.168 23.919C15.168 23.4886 15.168 23.0725 15.168 22.6516C15.2206 22.6468 15.2684 22.6421 15.3114 22.6421C15.7419 22.6421 16.1675 22.6373 16.5979 22.6468C16.7318 22.6516 16.8657 22.6755 16.9949 22.709C17.1957 22.7616 17.3153 22.9051 17.3487 23.106C17.3679 23.2399 17.3679 23.3738 17.3535 23.5077C17.3344 23.6607 17.2435 23.7803 17.0905 23.8329C16.9757 23.8711 16.8514 23.9142 16.7318 23.9142C16.2153 23.9238 15.6988 23.919 15.168 23.919Z" fill="white"/>
    <path d="M15.1602 20.711C15.1602 20.3906 15.1602 20.0845 15.1602 19.7641C15.208 19.7593 15.2462 19.7497 15.2845 19.7497C15.6432 19.7497 16.0019 19.7449 16.3558 19.7545C16.504 19.7593 16.6571 19.7832 16.8053 19.8215C16.9631 19.8597 17.0492 19.9745 17.054 20.1419C17.054 20.2136 17.054 20.2806 17.0492 20.3523C17.0349 20.5149 16.9392 20.6201 16.791 20.6775C16.7192 20.7014 16.6427 20.7206 16.571 20.7253C16.1262 20.7301 15.6814 20.7301 15.2367 20.7301C15.2128 20.7253 15.1984 20.7206 15.1602 20.711Z" fill="white"/>
</svg>
