<svg width="107" height="30" viewBox="0 0 107 30" fill="none" xmlns="http://www.w3.org/2000/svg">
    <path fill-rule="evenodd" clip-rule="evenodd" d="M82.1004 2.09099L82.1017 2.09592C82.2475 2.67184 82.3933 3.24776 82.5364 3.82368C83.0665 5.96588 83.594 8.10809 84.1215 10.2503L84.1216 10.2509C84.6491 12.3929 85.1765 14.5349 85.7066 16.6769L86.0681 18.1389L86.0697 18.1456C86.6694 20.5705 87.2678 22.9905 87.8589 25.4179C88.0604 26.2468 88.2618 27.0865 88.4315 27.9261C88.5057 28.2814 88.6647 28.4213 89.004 28.3675C89.3221 28.3244 89.6296 28.3029 89.9476 28.2814C90.1809 28.2598 90.2445 28.3998 90.2657 28.6043C90.2911 28.8359 90.1616 28.8283 90.0383 28.8211C90.0068 28.8193 89.9757 28.8174 89.9476 28.8196C89.7493 28.8268 89.5463 28.8244 89.3448 28.822C89.2447 28.8208 89.145 28.8196 89.0464 28.8196L88.9842 28.8204C87.1917 28.8416 85.389 28.8631 83.5967 28.895C83.5626 28.895 83.5278 28.8956 83.4927 28.8963H83.4926C83.386 28.8983 83.2763 28.9004 83.1726 28.8842C83.0029 28.8627 82.9393 28.7443 82.9499 28.5828C82.9605 28.4213 83.0665 28.3783 83.2044 28.3783C83.3457 28.3783 83.4871 28.3759 83.6285 28.3735H83.6286C83.9113 28.3687 84.194 28.3639 84.4767 28.3783C84.8372 28.3998 84.975 28.346 84.869 27.9046C84.4957 26.3288 84.1346 24.7489 83.7731 23.1674C83.5493 22.1884 83.3254 21.2089 83.0983 20.2293C82.9181 19.4435 82.9075 19.4435 82.0805 19.4435C81.7779 19.4435 81.4753 19.4452 81.1726 19.447L81.1716 19.447C80.4143 19.4514 79.657 19.4558 78.8997 19.4327C78.5074 19.4219 78.3378 19.5511 78.2635 19.9494C77.7546 22.6298 77.2351 25.3103 76.705 27.9907C76.6413 28.2921 76.7368 28.3783 77.023 28.3783C77.3058 28.3711 77.5885 28.3735 77.8712 28.3759C78.0126 28.3771 78.154 28.3783 78.2953 28.3783C78.5074 28.3783 78.6558 28.4751 78.6452 28.6904C78.6366 28.8567 78.5019 28.8451 78.3835 28.835C78.3562 28.8327 78.3298 28.8304 78.306 28.8304H74.8601C74.8461 28.8304 74.8315 28.8309 74.8165 28.8316C74.8047 28.8322 74.7925 28.8329 74.7803 28.8337C74.6329 28.8425 74.4661 28.8524 74.4572 28.6259C74.448 28.3839 74.6212 28.3913 74.771 28.3978C74.7945 28.3988 74.8174 28.3998 74.8389 28.3998C75.1782 28.389 75.5069 28.389 75.8461 28.3998C76.1112 28.4106 76.196 28.3244 76.249 28.0446C76.7792 25.2026 77.3199 22.3607 77.8606 19.5188C78.2264 17.5972 78.5922 15.6784 78.958 13.7595C79.3238 11.8407 79.6896 9.92191 80.0554 8.00043C80.1204 7.65302 80.1845 7.30561 80.2487 6.95825C80.6558 4.75474 81.0625 2.55342 81.667 0.368164C81.8097 0.942439 81.9551 1.51671 82.1004 2.09099ZM81.2101 18.9997H81.2103C81.6214 18.9973 82.0341 18.9949 82.4516 19.0021C82.7591 19.0129 82.8757 18.9052 82.7697 18.5823C82.6742 18.2808 82.5894 17.9687 82.5152 17.6565C82.1918 16.284 81.8711 14.9141 81.5504 13.5443C81.2296 12.1745 80.9089 10.8047 80.5855 9.43215L80.5824 9.41921C80.562 9.33563 80.5384 9.23839 80.4477 9.23839C80.3119 9.23839 80.2996 9.36376 80.2891 9.47041L80.2887 9.47521C80.271 9.58648 80.2545 9.69774 80.238 9.809C80.205 10.0314 80.172 10.2539 80.1296 10.4763L79.8934 11.6432C79.4312 13.9264 78.9679 16.2152 78.4968 18.4961C78.4226 18.8622 78.5074 19.0236 78.9103 19.0129C79.3042 18.9898 79.709 18.9942 80.113 18.9986C80.2744 19.0003 80.4357 19.0021 80.5961 19.0021C80.8006 19.0021 81.0052 19.0009 81.2101 18.9997ZM52.3403 2.74882C52.1521 1.98702 51.9638 1.22523 51.7782 0.466133C51.7464 0.466133 51.7146 0.455368 51.6828 0.412309C51.6722 0.444603 51.6643 0.476898 51.6563 0.509192C51.6484 0.541487 51.6404 0.573781 51.6298 0.606076C51.2895 1.95208 51.044 3.31253 50.7983 4.67454L50.7982 4.67466L50.7982 4.67478C50.6764 5.34965 50.5546 6.0249 50.4211 6.69897C49.9758 8.95947 49.5411 11.22 49.1064 13.4805L49.1064 13.4806L49.1064 13.4807L49.1064 13.4808C48.8308 14.9335 48.5553 16.3888 48.2797 17.8441L48.2786 17.8502C48.0032 19.3048 47.7278 20.7593 47.4524 22.2111C47.3249 22.8878 47.1949 23.5632 47.065 24.2382L47.065 24.2384L47.065 24.2386C46.8167 25.5286 46.5688 26.8171 46.3391 28.1102C46.2861 28.4009 46.1907 28.4762 45.9362 28.4655C45.5969 28.4547 45.2682 28.4547 44.9289 28.4655C44.9051 28.4655 44.8795 28.464 44.8534 28.4625L44.8533 28.4625C44.7053 28.4541 44.5382 28.4446 44.5473 28.6915C44.5565 28.9078 44.7113 28.9023 44.8493 28.8975C44.8693 28.8968 44.8889 28.8961 44.9077 28.8961H48.4066C48.4288 28.8961 48.4531 28.8977 48.4783 28.8995C48.61 28.9085 48.7654 28.9191 48.7565 28.7023C48.7459 28.4547 48.5444 28.4439 48.3642 28.4439H47.0919C46.8586 28.4439 46.742 28.4009 46.8056 28.0995C47.3463 25.4083 47.8659 22.717 48.3854 20.0151C48.449 19.6598 48.6187 19.5091 48.9898 19.5091C50.2091 19.5199 51.4284 19.5199 52.6477 19.5091C52.9445 19.5091 53.0824 19.5952 53.1354 19.9182C53.358 21.1561 53.6337 22.3941 53.9094 23.6213C54.0842 24.4057 54.289 25.1841 54.4935 25.9612L54.4935 25.9613L54.4936 25.9616C54.6736 26.6454 54.8533 27.3282 55.012 28.0133C55.0969 28.3578 54.9696 28.4655 54.641 28.4547C54.3582 28.4404 54.0755 28.4451 53.7927 28.4499C53.6514 28.4523 53.51 28.4547 53.3686 28.4547C53.2202 28.4655 53.1248 28.5193 53.1248 28.6808C53.1248 28.8422 53.2202 28.9068 53.358 28.9068H53.7291H59.3485H60.0907C60.2603 28.9176 60.3452 28.8207 60.3452 28.6485C60.3452 28.4762 60.2815 28.3794 60.1013 28.3686C59.8574 28.3686 59.6136 28.3901 59.3697 28.4439C58.8926 28.5516 58.5427 28.4655 58.4897 27.8626C58.4764 27.6669 58.4131 27.4753 58.3494 27.2827C58.3115 27.1682 58.2735 27.0533 58.2458 26.9369C57.9166 25.569 57.5909 24.1994 57.2652 22.8295L57.2647 22.8273C56.7933 20.8449 56.3217 18.8618 55.839 16.8825C55.2601 14.5121 54.6698 12.1417 54.0794 9.77127L54.0794 9.77111L54.0793 9.77094C53.6858 8.19077 53.2923 6.6106 52.9021 5.03042C52.7166 4.27179 52.5285 3.51047 52.3404 2.74915L52.3404 2.74902L52.3403 2.74882ZM50.4177 9.57202C50.4342 9.46429 50.4524 9.34606 50.6013 9.261C50.792 10.072 50.9903 10.8671 51.1898 11.6668L51.2905 12.0706C51.5556 13.1632 51.8153 14.2586 52.0751 15.3539C52.3349 16.4492 52.5946 17.5445 52.8597 18.6372C52.9445 18.9924 52.9127 19.1216 52.5204 19.1216C51.3364 19.1001 50.1629 19.1108 48.9789 19.1215L48.9685 19.1216C48.6293 19.1216 48.5232 19.0247 48.5975 18.6802C49.0294 16.7976 49.3906 14.8981 49.7515 13.0002L49.7515 13C49.9663 11.8702 50.181 10.741 50.4105 9.61624C50.4131 9.60178 50.4154 9.587 50.4177 9.57202ZM105.927 28.7004C103.828 28.7004 101.718 28.7004 99.6189 28.6897C99.584 28.6897 99.5447 28.6942 99.504 28.6989C99.3467 28.7171 99.1692 28.7376 99.1524 28.5067C99.1363 28.2384 99.3077 28.2525 99.4748 28.2663C99.529 28.2707 99.5827 28.2751 99.6295 28.2698C99.7792 28.2504 99.9456 28.269 100.11 28.2874C100.4 28.3198 100.684 28.3515 100.859 28.173C101.043 27.9787 101.008 27.66 100.972 27.3428V27.3427V27.3426V27.3426V27.3425V27.3424C100.957 27.2027 100.941 27.0633 100.944 26.935C100.947 26.4227 100.953 25.9104 100.96 25.3983L100.96 25.3962L100.96 25.394L100.96 25.3918L100.96 25.3897L100.96 25.3875C100.978 23.9448 100.996 22.5035 100.934 21.0682C100.87 19.7333 100.872 18.3937 100.875 17.0556C100.876 16.3866 100.877 15.718 100.87 15.0506C100.87 14.7061 100.775 14.5877 100.425 14.5877C99.1524 14.6093 97.88 14.6093 96.6077 14.5877C96.279 14.5877 96.1836 14.7061 96.1942 15.0291C96.2048 19.2597 96.2048 23.4903 96.1942 27.7316C96.1942 28.1622 96.3109 28.3237 96.7562 28.2053C96.9274 28.1635 97.1119 28.1712 97.2983 28.179H97.2984H97.2984H97.2985H97.2986H97.2986C97.4006 28.1833 97.5032 28.1875 97.6044 28.1837C97.8482 28.173 97.9755 28.3021 97.9755 28.5282C97.9755 28.7395 97.8211 28.7313 97.6901 28.7243C97.6676 28.7231 97.6458 28.722 97.6256 28.722C95.6005 28.7543 93.5648 28.7866 91.5397 28.8081C91.5087 28.8081 91.4758 28.8106 91.4426 28.8132C91.2825 28.8256 91.1138 28.8387 91.105 28.5713C91.0873 28.2752 91.2685 28.2782 91.446 28.2812C91.4814 28.2818 91.5167 28.2824 91.5503 28.2806C91.6431 28.2779 91.7358 28.2739 91.8286 28.2698C92.1069 28.2577 92.3852 28.2456 92.6636 28.2698C93.0452 28.3021 93.1407 28.1514 93.1407 27.7854C93.1301 25.0962 93.1301 22.4069 93.1301 19.7176V19.7118C93.1301 17.8634 93.1277 16.0151 93.1254 14.1671C93.1206 10.4724 93.1159 6.77924 93.1301 3.09089C93.1301 2.57417 93.0028 2.38041 92.4939 2.445C92.227 2.47511 91.9549 2.46837 91.6813 2.4616C91.5636 2.45868 91.4456 2.45576 91.3276 2.45576C91.1898 2.45576 91.0308 2.45576 91.0201 2.25123C91.0095 2.05746 91.1368 2.0144 91.2958 2.0144C92.1508 2.0144 93.0057 1.98889 93.8614 1.96336C95.0856 1.92684 96.3114 1.89027 97.5408 1.92828C97.7422 1.93905 97.8906 1.98211 97.9013 2.21893C97.9013 2.44092 97.7564 2.43792 97.6118 2.43492C97.5951 2.43458 97.5784 2.43423 97.562 2.43423C97.4647 2.43423 97.3682 2.436 97.2721 2.43777C97.0333 2.44215 96.7967 2.4465 96.5547 2.42347C96.1942 2.39117 96.0988 2.55264 96.1094 2.88635C96.12 4.3719 96.12 5.86822 96.12 7.35376C96.12 8.33592 96.1227 9.32074 96.1253 10.3056L96.1253 10.3141C96.128 11.3018 96.1306 12.2894 96.1306 13.2744C96.1306 14.1571 96.1306 14.1679 96.9788 14.1571C97.4825 14.1479 97.9881 14.1328 98.494 14.1177C99.1702 14.0974 99.8469 14.0772 100.52 14.071C100.838 14.071 100.902 13.9311 100.902 13.6512V13.6473V13.6435V13.6396V13.6358V13.632V13.6281C100.891 10.0511 100.881 6.4741 100.891 2.88635C100.891 2.55264 100.817 2.38041 100.456 2.42347C100.191 2.445 99.9263 2.445 99.6613 2.42347C99.6037 2.41815 99.5364 2.42464 99.4676 2.43128C99.2576 2.45155 99.0331 2.47321 99.0251 2.16511C99.0086 1.81176 99.2575 1.85292 99.4683 1.88776C99.5272 1.89751 99.5831 1.90675 99.6295 1.90675C101.75 1.89599 103.871 1.89599 105.991 1.89599V2.54188C105.809 2.53385 105.626 2.52134 105.442 2.50879C105.133 2.4877 104.823 2.46653 104.517 2.46653C104.146 2.46653 103.966 2.63876 103.977 3.09089C104.015 4.88181 104.016 6.66983 104.018 8.45796V8.45905C104.019 10.1099 104.02 11.7609 104.051 13.4144C104.113 16.9438 104.095 20.4731 104.077 24.0025V24.0035C104.071 25.2642 104.064 26.5248 104.061 27.7854C104.061 28.0868 104.146 28.1514 104.411 28.1514C104.941 28.1407 105.472 28.1514 106.002 28.1622C105.927 28.3452 105.927 28.5174 105.927 28.7004ZM63.1865 21.1123V20.5848C63.176 18.6368 63.1642 16.6876 63.1524 14.738L63.1524 14.7358L63.1524 14.7336L63.1524 14.7313L63.1524 14.7291L63.1524 14.7269C63.1288 10.8193 63.1052 6.91021 63.0911 3.00587C63.0911 2.65063 62.9851 2.53222 62.6352 2.55375C62.3016 2.56988 61.9739 2.56788 61.6432 2.56586L61.6431 2.56586C61.5325 2.56519 61.4215 2.56451 61.3099 2.56451C61.1508 2.56451 60.9706 2.56451 60.9812 2.32768C60.9812 2.09821 61.1451 2.09991 61.2873 2.10139L61.3205 2.10162C62.1407 2.11643 62.961 2.10324 63.7808 2.09005C65.3453 2.06489 66.9083 2.03975 68.4666 2.20927C70.7674 2.46763 72.3472 4.14694 72.6547 6.49367C72.8667 8.1084 72.7819 9.68007 72.1776 11.1764C71.6262 12.5327 70.7462 13.6415 69.4315 14.3197C69.4055 14.3344 69.3724 14.3434 69.3392 14.3526C69.2502 14.377 69.1596 14.4018 69.1982 14.535C69.2194 14.5996 69.3254 14.6534 69.3997 14.6749C71.711 15.2993 73.0258 16.8817 73.5983 19.1639C74.1072 21.1769 74.086 23.1899 73.3438 25.1276C72.5592 27.1837 71.2127 28.6046 68.6151 28.8092C67.1951 28.9226 65.771 28.9078 64.3479 28.893C63.4758 28.8839 62.6041 28.8748 61.734 28.8953L61.6964 28.8954C61.4942 28.8966 61.2787 28.8979 61.2887 28.5939C61.297 28.3399 61.4561 28.3522 61.6062 28.3639C61.647 28.367 61.6871 28.3701 61.7234 28.3678C61.8911 28.353 62.0777 28.3739 62.2619 28.3944C62.6134 28.4337 62.9563 28.472 63.1441 28.2602C63.3051 28.0745 63.2641 27.7094 63.2232 27.3453C63.2049 27.1817 63.1865 27.0183 63.1865 26.8715V21.1231V21.1123ZM70.937 22.9854C70.937 22.8522 70.9382 22.7203 70.9394 22.5887V22.5882C70.9418 22.3264 70.9441 22.0662 70.937 21.8013C70.8734 20.5095 70.7568 19.2285 70.4281 17.969C70.2267 17.1939 69.8238 16.505 68.9332 16.3866C68.2793 16.3003 67.6186 16.2694 66.9566 16.2383C66.792 16.2306 66.6274 16.2229 66.4627 16.2143C66.2295 16.2036 66.1235 16.322 66.2083 16.548C66.313 16.826 66.3014 17.1103 66.2898 17.396V17.3961V17.3962V17.3964V17.3965V17.3966C66.2862 17.4868 66.2825 17.5772 66.2825 17.6676L66.2824 17.6749C66.2506 21.0418 66.2188 24.4088 66.1765 27.7757C66.1765 28.131 66.2507 28.314 66.6218 28.3248C67.5548 28.3571 68.4878 28.357 69.3467 27.8834C69.7708 27.6466 70.0782 27.2913 70.3115 26.85C70.9264 25.6335 70.9901 24.3202 70.937 22.9854ZM69.6541 8.56052C69.6541 8.38974 69.6578 8.20688 69.6616 8.01576C69.6708 7.55636 69.681 7.04924 69.6435 6.5475C69.5587 5.42796 69.4527 4.29765 68.8695 3.29652C68.5939 2.82287 68.2122 2.56451 67.6714 2.56451C67.5478 2.56451 67.4241 2.56571 67.3004 2.5669C67.053 2.56929 66.8056 2.57169 66.5582 2.56451C66.2507 2.55375 66.1659 2.68292 66.1765 2.97357C66.1886 3.44068 66.1869 3.91129 66.1851 4.38341V4.38398V4.3848V4.38562V4.38644V4.38727V4.38809C66.1838 4.74133 66.1825 5.09541 66.1871 5.44949C66.2045 6.61537 66.1968 7.77943 66.1891 8.94317C66.1781 10.6054 66.1671 12.2669 66.2295 13.9322C66.2507 14.5027 66.4203 14.535 66.8232 14.4597C67.0806 14.415 67.3342 14.3591 67.5886 14.303L67.5887 14.303C67.7639 14.2644 67.9394 14.2257 68.1167 14.1905C68.7317 14.0614 69.0604 13.6631 69.2512 13.0602C69.6753 11.6177 69.6965 10.1645 69.6541 8.56052ZM5.30683 17.5925V16.6451C5.33864 16.6451 5.37044 16.6451 5.41286 16.6667C5.42699 16.6918 5.44231 16.7157 5.45762 16.7396C5.48825 16.7875 5.51888 16.8353 5.54009 16.8927C7.05614 20.5417 8.56159 24.1907 10.067 27.8397L10.0671 27.8399L10.0672 27.8401L10.0673 27.8402L10.0673 27.8404L10.0674 27.8406C10.3537 28.5295 10.3431 28.5295 9.59028 28.5295C9.55494 28.5295 9.5196 28.5283 9.48426 28.5271C9.41357 28.5247 9.34289 28.5223 9.27221 28.5295C9.23573 28.5316 9.19615 28.5297 9.15607 28.5278C8.98644 28.5198 8.80772 28.5113 8.81629 28.7986C8.82493 29.0881 9.0095 29.0702 9.18081 29.0537L9.18086 29.0537C9.21981 29.0499 9.25806 29.0462 9.29341 29.0462C10.3007 29.0462 11.3079 29.0435 12.3152 29.0409L12.3173 29.0408C13.3238 29.0382 14.3304 29.0355 15.3369 29.0355H15.549C15.7186 29.0247 15.7928 28.9278 15.8034 28.7556C15.814 28.5618 15.708 28.508 15.5384 28.508C15.4928 28.508 15.4461 28.5056 15.399 28.5033C15.3035 28.4985 15.2065 28.4936 15.1142 28.508C14.5629 28.5941 14.2978 28.3681 14.0752 27.819C13.2148 25.6305 12.306 23.4583 11.398 21.2882L11.398 21.2881L11.398 21.288L11.3979 21.288L11.3979 21.2879L11.3974 21.2866C11.265 20.9702 11.1326 20.6538 11.0004 20.3375C9.90846 17.7111 8.81648 15.0955 7.72451 12.4798L7.72445 12.4797L7.7244 12.4796L7.72434 12.4794L7.72428 12.4793L7.72422 12.4792C7.6394 12.2639 7.6394 12.0809 7.75603 11.8656C7.99469 11.4168 8.21861 10.9606 8.44009 10.5094L8.57243 10.2401C9.73872 7.88257 10.905 5.53584 12.0607 3.21064C12.2091 2.89846 12.3788 2.78004 12.7075 2.80157C12.9239 2.82041 13.1404 2.81361 13.3569 2.80681L13.3569 2.80681C13.5115 2.80195 13.6661 2.79709 13.8207 2.80157C14.0858 2.81234 14.16 2.66163 14.1706 2.44633C14.1793 2.21808 14.0328 2.23325 13.9037 2.24661C13.8745 2.24964 13.8462 2.25257 13.8207 2.25257C13.5871 2.24538 13.3487 2.24779 13.1119 2.25019H13.1119H13.1119H13.1119H13.1119C12.9941 2.25138 12.8767 2.25257 12.7605 2.25257C12.3788 2.25795 11.9998 2.26064 11.6207 2.26333L11.6207 2.26333L11.6206 2.26333C11.2416 2.26602 10.8626 2.26871 10.4809 2.2741C10.45 2.2741 10.4169 2.27188 10.3832 2.26962C10.22 2.2587 10.0407 2.24671 10.0144 2.47863C9.99035 2.73081 10.148 2.71865 10.2996 2.70695C10.3486 2.70317 10.397 2.69943 10.4385 2.70469C10.7354 2.74775 11.0322 2.78004 11.3291 2.79081C11.6048 2.79081 11.679 2.83387 11.5306 3.12452C11.2602 3.63585 11.0031 4.15525 10.746 4.67465C10.4889 5.19406 10.2317 5.71346 9.96138 6.22479C8.96724 8.13134 8.02254 10.0653 7.07754 11.9999L7.0775 11.9999C6.5712 13.0364 6.06482 14.0731 5.55069 15.1058C5.54126 15.1273 5.53392 15.1531 5.52636 15.1798C5.49989 15.2729 5.47055 15.3761 5.33864 15.3426C5.21646 15.316 5.22358 15.1946 5.22992 15.0865C5.23128 15.0632 5.23261 15.0406 5.23261 15.0197V13.4588C5.22908 12.3464 5.22672 11.234 5.22436 10.1217C5.21965 7.89693 5.21494 5.6722 5.2008 3.44746C5.1902 3.0384 5.28562 2.86616 5.72033 2.88769C5.79249 2.88973 5.86502 2.8933 5.93779 2.89689C6.24996 2.91227 6.56648 2.92786 6.87602 2.8231C6.90907 2.81192 6.94578 2.80399 6.98264 2.79602C7.12314 2.76567 7.26569 2.73488 7.2153 2.52169C7.17126 2.30708 7.00285 2.33016 6.85592 2.3503C6.82597 2.35441 6.79692 2.35839 6.76999 2.36022C5.03116 2.47863 3.29233 2.53245 1.5429 2.56475C1.229 2.57271 0.920916 2.59837 0.610039 2.62426L0.610033 2.62426C0.500886 2.63335 0.391396 2.64247 0.28119 2.65087L0.279355 2.65102C0.152637 2.66174 0.0162266 2.67327 0.0373299 2.8554C0.0471613 2.98516 0.148154 2.9946 0.247326 3.00387L0.270587 3.0061C0.398579 3.01477 0.526571 3.02653 0.654358 3.03827L0.654362 3.03827L0.654394 3.03828C1.00295 3.07031 1.34998 3.1022 1.69134 3.07069C2.07303 3.02763 2.13665 3.12452 2.13665 3.47976C2.15028 4.71618 2.15223 5.95259 2.15417 7.18901C2.15677 8.83757 2.15937 10.4861 2.18966 12.1347C2.25328 15.7445 2.25092 19.3543 2.24856 22.9641C2.24739 24.769 2.24621 26.5739 2.25328 28.3788C2.25328 28.6695 2.15785 28.7125 1.9246 28.7125C1.62812 28.7054 1.33634 28.7077 1.043 28.7101C0.895747 28.7113 0.7481 28.7125 0.599268 28.7125C0.573154 28.7125 0.545848 28.7115 0.518139 28.7105C0.343348 28.704 0.152508 28.697 0.143356 28.9386C0.134894 29.1963 0.31552 29.1729 0.469652 29.153C0.508649 29.1479 0.54595 29.1431 0.578063 29.1431H3.75885C4.10206 29.1431 4.44409 29.1443 4.78573 29.1455C5.46783 29.1479 6.14836 29.1503 6.8336 29.1431C6.87027 29.1431 6.91045 29.147 6.95158 29.1511C7.13645 29.1691 7.3406 29.189 7.33193 28.8632C7.32368 28.5535 7.12949 28.5758 6.95378 28.5959C6.90355 28.6017 6.85483 28.6073 6.8124 28.6049C6.49432 28.5833 6.17624 28.5726 5.85816 28.6049C5.41286 28.6479 5.29623 28.4757 5.29623 28.0343C5.31213 25.4183 5.31014 22.8084 5.30815 20.2V20.1998V20.1993V20.1988V20.1983V20.1978C5.30749 19.3292 5.30683 18.4608 5.30683 17.5925ZM34.5546 22.8709V22.8706V22.8705V22.8704V22.8703C34.5612 22.03 34.5679 21.1917 34.5382 20.3483C34.4123 16.7825 34.4314 13.221 34.4504 9.65848V9.65811V9.65775V9.65738C34.4618 7.51999 34.4733 5.38222 34.4534 3.24294C34.4534 2.87694 34.3686 2.72623 33.9869 2.74776C33.7263 2.76712 33.4619 2.76327 33.196 2.7594C33.0183 2.75681 32.8399 2.75421 32.6616 2.75852C32.4495 2.75852 32.3223 2.7047 32.3329 2.45711C32.3427 2.22803 32.4796 2.22933 32.6343 2.23081L32.6722 2.23105C33.3321 2.23105 33.993 2.22929 34.6542 2.22753H34.6542H34.6543H34.6543C36.3088 2.22314 37.9655 2.21874 39.6169 2.24181C41.2391 2.26334 42.5326 3.00611 43.4232 4.39478C43.868 5.09094 44.005 5.91043 44.1387 6.70954C44.1579 6.82482 44.1772 6.93968 44.1972 7.05369C44.4623 8.56077 44.5577 10.0894 44.3987 11.6072C44.1866 13.5772 43.4444 15.3103 41.8858 16.6452C41.1118 17.3018 40.2636 17.7862 39.3412 18.0876C39.3019 18.1006 39.2616 18.1145 39.2204 18.1287C38.8173 18.2677 38.3311 18.4353 37.8886 18.0446C37.6978 17.8723 37.5282 17.9585 37.5282 18.2491C37.5506 19.0299 37.5464 19.8126 37.5422 20.5955V20.5957V20.5958V20.596V20.596V20.596V20.5961C37.5365 21.659 37.5307 22.7224 37.5918 23.7822C37.666 25.1063 37.6342 26.4412 37.6024 27.7652C37.5918 28.2604 37.7296 28.4434 38.2279 28.3896C38.4948 28.3595 38.7669 28.3662 39.0406 28.373C39.1583 28.3759 39.2762 28.3788 39.3942 28.3788C39.4157 28.3788 39.4379 28.3783 39.4604 28.3777H39.4605C39.6372 28.3734 39.8301 28.3686 39.8395 28.6264C39.8489 28.92 39.6449 28.9136 39.4585 28.9079C39.433 28.9071 39.4079 28.9063 39.3836 28.9063H33.3931C33.2766 28.9063 33.1627 28.909 33.0488 28.9117L33.0485 28.9117C32.9346 28.9144 32.8206 28.9171 32.704 28.9171C32.5449 28.9171 32.4389 28.8632 32.4283 28.6695C32.4177 28.4649 32.5025 28.3681 32.704 28.3681C33.1493 28.3573 33.584 28.3681 34.0187 28.4542C34.3898 28.5295 34.5488 28.4004 34.5382 27.9698C34.5382 27.3104 34.5408 26.6457 34.5435 25.9783V25.9778V25.9773V25.9768C34.5461 25.3045 34.5488 24.6295 34.5488 23.9545C34.5488 23.5927 34.5517 23.2319 34.5546 22.8714V22.8711V22.8709ZM37.5494 13.0282V16.9035C37.5494 17.6248 37.719 17.8078 38.4506 17.8293C38.5036 17.8293 38.5566 17.8317 38.6096 17.8341C38.7156 17.8389 38.8217 17.8436 38.9277 17.8293C39.6487 17.7324 40.3485 17.5386 40.6771 16.8066C41.2921 15.4287 41.5041 13.9324 41.642 12.4576C41.7692 11.0044 41.7268 9.51884 41.6526 8.05482C41.589 6.79534 41.4405 5.52508 40.9528 4.34095C40.6771 3.6843 40.3591 2.97382 39.5957 2.82311C39.0549 2.71546 38.5036 2.65087 37.9205 2.74776C37.507 2.81235 37.4539 2.97382 37.4645 3.32906C37.492 4.13889 37.4878 4.95073 37.4836 5.76372C37.4781 6.83111 37.4726 7.90047 37.5388 8.96983C37.5965 9.87125 37.5805 10.7926 37.5645 11.7204L37.5644 11.7208C37.5569 12.1556 37.5494 12.5919 37.5494 13.0282ZM23.7767 1.89018C23.6522 1.40038 23.5276 0.91058 23.4057 0.420781C23.3738 0.431546 23.3314 0.44231 23.289 0.431546C23.2437 0.638606 23.1957 0.842936 23.1479 1.04648C23.0614 1.41436 22.9756 1.77968 22.9073 2.15392C22.5638 3.96532 22.2261 5.77966 21.8881 7.5954C21.5793 9.25425 21.2703 10.9143 20.9564 12.5743C20.7301 13.7857 20.4931 14.9971 20.2557 16.2105C20.0817 17.0998 19.9075 17.9902 19.7371 18.8825C19.5001 20.125 19.2653 21.3676 19.0307 22.6091C18.751 24.0888 18.4717 25.5671 18.1892 27.0422C18.1623 27.1726 18.1447 27.3114 18.1271 27.4502C18.0821 27.8042 18.0373 28.1575 17.8393 28.3663C17.6477 28.5752 17.3232 28.5382 16.9928 28.5006C16.8295 28.482 16.6648 28.4633 16.514 28.4739H16.4609C16.4546 28.4739 16.4482 28.4739 16.4418 28.4739C16.2878 28.4735 16.1225 28.473 16.1429 28.7108C16.1623 28.9082 16.2977 28.9065 16.4263 28.9048C16.4379 28.9047 16.4495 28.9045 16.4609 28.9045H20.0658C20.2037 28.9045 20.3627 28.9045 20.3627 28.7C20.3627 28.4739 20.1931 28.4632 20.0234 28.4632C19.6311 28.4524 19.2388 28.4416 18.8571 28.4632C18.4648 28.4955 18.4012 28.3017 18.4648 27.9788L18.4651 27.9776C18.9739 25.3513 19.4828 22.7251 19.981 20.0881C20.0552 19.6791 20.2143 19.5176 20.6384 19.5284C21.8365 19.5499 23.0452 19.5499 24.2433 19.5284C24.5825 19.5176 24.7098 19.6468 24.784 19.959C25.3989 22.6825 26.0139 25.3952 26.6501 28.1079C26.7137 28.3771 26.6713 28.4739 26.3956 28.4632C25.9715 28.4524 25.5474 28.4524 25.1233 28.4632C25.0986 28.4632 25.0725 28.4616 25.0458 28.46C24.9004 28.4514 24.7399 28.4419 24.731 28.6785C24.7216 28.9259 24.8945 28.9209 25.0519 28.9165C25.0726 28.9159 25.093 28.9153 25.1127 28.9153H27.7103H31.6333C31.6573 28.9153 31.6828 28.9168 31.7087 28.9183C31.8545 28.9267 32.015 28.936 32.015 28.6892C32.015 28.4201 31.8347 28.3555 31.6227 28.3771C31.4 28.3986 31.1668 28.4309 30.9441 28.4632C30.4776 28.5385 30.2337 28.3986 30.1171 27.8711C29.7562 26.2964 29.3676 24.7273 28.9793 23.1598C28.8314 22.5628 28.6835 21.966 28.5373 21.3691C27.8057 18.3335 27.0636 15.2978 26.3214 12.2621C25.6004 9.291 24.8794 6.33067 24.1478 3.35958C24.0259 2.86978 23.9013 2.37998 23.7767 1.89018ZM23.9994 19.1085H22.356H20.5642C20.2991 19.1085 20.1506 19.0978 20.2249 18.721C20.5875 16.9448 20.9386 15.1685 21.2898 13.3923C21.5239 12.2082 21.758 11.0241 21.9955 9.84001C22 9.81703 22.0021 9.78817 22.0044 9.75708C22.0128 9.64254 22.0234 9.49783 22.1651 9.5063C22.3335 9.52117 22.3199 9.62841 22.3059 9.73945C22.2995 9.78922 22.2931 9.83976 22.303 9.88307C22.4111 10.3352 22.5307 10.7873 22.6503 11.2395C22.7301 11.5409 22.8098 11.8423 22.8861 12.1437C23.183 13.3171 23.4481 14.5012 23.6919 15.6853C23.825 16.3183 24.0044 16.9372 24.1842 17.5575C24.2765 17.8761 24.369 18.195 24.4553 18.5165C24.6144 19.0978 24.6037 19.1085 23.9994 19.1085Z" fill="#121419"/>
</svg>
