<svg width="81" height="34" viewBox="0 0 81 34" fill="none" xmlns="http://www.w3.org/2000/svg">
    <path d="M75.0151 23.2848C74.6713 23.3133 74.4107 23.627 74.4078 23.9736C74.3434 25.0082 74.4025 26.0496 74.3803 27.0813C74.3923 27.5786 74.3403 28.0922 74.4532 28.5738C74.5758 28.9228 74.974 29.1281 75.3205 29.0348C76.7641 28.8501 78.2017 28.6673 79.6465 28.4887C79.8495 28.4692 80.0674 28.4138 80.2159 28.2488C80.4637 28.0235 80.4183 27.6377 80.4433 27.3303C80.4467 26.2991 80.4365 25.2681 80.4467 24.2364C80.4365 23.8657 80.4664 23.4851 80.3619 23.128C80.2477 22.8253 79.9224 22.6599 79.6199 22.6877C78.0849 22.8933 76.55 23.0794 75.015 23.2848H75.0151ZM22.3251 18.0086C22.132 18.0274 21.9256 18.0865 21.7771 18.229C21.6243 18.3996 21.5466 18.6436 21.5709 18.8781C21.5634 20.1145 21.5749 21.3525 21.566 22.5857C21.1184 22.6685 20.6689 22.7232 20.2159 22.761C20.2097 21.741 20.2159 20.721 20.2159 19.7035C20.2057 19.3571 20.2425 18.9801 20.0582 18.6674C19.8565 18.3935 19.5078 18.3401 19.1951 18.4097C17.7894 18.5843 16.3811 18.7746 14.9721 18.9422C14.7113 18.9768 14.4128 18.9849 14.2225 19.1999C13.9762 19.4251 14.0046 19.8058 13.9916 20.1145C13.9985 24.3055 13.9985 28.4968 13.9916 32.6886C14.0085 33.0453 13.968 33.4316 14.1663 33.7498C14.289 33.8564 14.4271 33.9784 14.5955 33.9979C14.9721 34.0133 15.3424 33.9406 15.7168 33.8955C16.9207 33.7452 18.1286 33.5828 19.3357 33.4409C19.5952 33.4161 19.8837 33.3636 20.0427 33.1336C20.2329 32.899 20.2004 32.5622 20.2159 32.2803C20.2159 31.0397 20.2097 29.801 20.2159 28.5661C20.6662 28.5084 21.1184 28.453 21.5709 28.395C21.5749 29.6264 21.5634 30.8482 21.5709 32.0674C21.5789 32.3035 21.5539 32.586 21.7326 32.7672C21.8969 33.0404 22.2493 33.0704 22.5308 33.031C23.9642 32.8456 25.3961 32.6648 26.8242 32.4842C27.0678 32.4545 27.3381 32.429 27.5297 32.2589C27.713 32.0887 27.7654 31.8193 27.7484 31.5799C27.7456 27.1797 27.7484 22.7808 27.7456 18.3859C27.7564 18.1016 27.7354 17.7552 27.4838 17.5784C27.2425 17.3686 26.9075 17.4521 26.6203 17.4669C25.1909 17.6511 23.7528 17.8279 22.3251 18.0086H22.3251ZM37.4885 16.0935C37.2152 16.1426 37.0832 16.4251 36.9477 16.6504C36.1622 18.1303 35.372 19.6061 34.5753 21.0826C34.5387 19.8405 34.5835 18.5958 34.5556 17.3541C34.5718 17.0313 34.3736 16.679 34.0581 16.5918C33.6261 16.5424 33.1919 16.6347 32.7668 16.6848C31.5995 16.8371 30.4391 16.9789 29.2759 17.1282C29.0537 17.1538 28.7984 17.231 28.6691 17.4414C28.5521 17.6025 28.5338 17.8178 28.5426 18.013C28.5466 21.9959 28.5466 25.9817 28.5426 29.9689C28.5466 30.5102 28.5196 31.0585 28.5688 31.5994C28.5975 31.8679 28.8229 32.0742 29.0694 32.147C29.6054 32.1774 30.131 32.0545 30.666 31.9964C31.7518 31.8586 32.8414 31.7226 33.9274 31.5799C34.2035 31.5799 34.471 31.4138 34.6017 31.1611C35.41 29.6466 36.2111 28.132 37.0268 26.6168C37.0452 27.7612 37.0222 28.9083 37.035 30.0497C37.0452 30.3013 37.0181 30.594 37.194 30.7896C37.3248 31.0284 37.6207 31.1167 37.87 31.0716C38.5827 31.0088 39.2925 30.8973 40.0081 30.8078C40.8402 30.6952 41.6816 30.6123 42.5185 30.48C42.8254 30.4367 43.055 30.125 43.052 29.8076C43.055 25.3357 43.052 20.8708 43.055 16.4074C43.061 16.1306 43.038 15.777 42.7732 15.6248C42.5281 15.4245 42.1989 15.4878 41.9159 15.5176C40.4428 15.7274 38.9598 15.883 37.4885 16.0935H37.4885ZM52.29 14.2033C51.911 14.2033 51.465 14.4028 51.4269 14.8377C51.411 17.7449 51.4436 20.6511 51.411 23.5634C50.9509 23.6356 50.4904 23.6796 50.0313 23.7435C50.0238 21.0274 50.0313 18.3031 50.0313 15.5803C50.0457 15.2768 49.9962 14.882 49.7056 14.7153C49.4834 14.5484 49.2061 14.6046 48.9508 14.6222C47.6749 14.7981 46.397 14.9497 45.1179 15.1157C44.7774 15.1704 44.407 15.1508 44.0997 15.3457C43.9072 15.5358 43.8185 15.806 43.8463 16.0739C43.8552 20.4748 43.8463 24.8683 43.8463 29.2697C43.8647 29.4835 43.8293 29.7374 43.9777 29.9196C44.0997 30.0551 44.256 30.1969 44.4488 30.2117C44.8491 30.2165 45.2479 30.14 45.6445 30.0949C46.9229 29.9291 48.202 29.7713 49.4774 29.6021C50.1241 29.5372 50.772 29.4208 51.4227 29.3831C51.4294 30.0497 51.3957 30.72 51.4449 31.3932C51.4973 31.7806 51.9225 32.0335 52.2827 31.9623C52.8238 31.908 53.3659 31.8193 53.9048 31.756C54.511 31.6687 55.1175 31.629 55.7146 31.5117C56.0147 31.4342 56.1453 31.0955 56.238 30.8231C56.9931 28.5425 57.7414 26.2608 58.5069 23.9782C58.6057 23.7004 58.6714 23.3376 58.4806 23.086C58.3047 22.7726 57.9069 22.7473 57.6046 22.7313C57.6017 20.0895 57.6017 17.4414 57.6046 14.7932C57.5942 14.443 57.6099 14.0226 57.3112 13.7825C57.0593 13.5809 56.7384 13.6498 56.4426 13.6794C55.0586 13.8493 53.6756 14.032 52.29 14.2033H52.29ZM63.3244 12.8052C62.981 12.8001 62.7257 13.0851 62.6341 13.4076C61.0955 18.067 59.5564 22.7232 58.0142 27.3835C57.9294 27.6601 57.9748 28.0003 58.1874 28.2035C58.3871 28.4377 58.7168 28.4377 58.9956 28.4049C60.6471 28.1794 62.3106 27.9922 63.9621 27.7612C64.2385 27.725 64.4043 27.4528 64.4876 27.2029C64.589 26.7968 64.6689 26.3916 64.759 25.9869C65.5479 25.8551 66.3406 25.7596 67.1363 25.6737C67.2431 26.0888 67.3225 26.5148 67.4923 26.9145C67.6825 27.2029 68.0517 27.2904 68.3645 27.2125C69.6543 27.0369 70.9469 26.8859 72.2326 26.7186C72.6327 26.6649 73.037 26.6406 73.4311 26.5534C73.7715 26.4361 73.984 26.0107 73.8797 25.6532C73.7885 25.3033 73.6503 24.9646 73.5312 24.623C72.1383 20.6721 70.7394 16.7139 69.3414 12.7615C69.2783 12.5808 69.2094 12.3902 69.0442 12.2876C68.8093 12.0969 68.4909 12.1346 68.221 12.1836C66.591 12.3939 64.9567 12.5965 63.3244 12.8052ZM74.6815 11.3497C74.3943 11.3591 74.0898 11.4757 73.9305 11.7359C73.7436 12.2004 73.8859 12.7068 73.9123 13.1817C74.1616 15.9219 74.4182 18.6573 74.6501 21.3988C74.6713 21.6436 74.7065 21.902 74.8331 22.1224C75.0519 22.4145 75.4471 22.43 75.7755 22.3847C76.8644 22.2348 77.9524 22.1029 79.0412 21.9713C79.3321 21.9276 79.6396 21.8916 79.8942 21.7354C80.1155 21.5256 80.1276 21.1905 80.1602 20.8959C80.3282 18.883 80.5186 16.8647 80.696 14.8528C80.7927 13.7671 80.8656 12.6832 81 11.6032V11.2611C80.884 11.0368 80.7587 10.7579 80.4969 10.7004C79.9647 10.651 79.4339 10.7483 78.907 10.8162C77.4972 10.9936 76.0899 11.1773 74.6815 11.3497H74.6815ZM0.736716 4.88549C0.513891 4.90982 0.260792 4.98808 0.127939 5.19893C-0.00541378 5.36961 0.0156719 5.60497 0.00541398 5.80997C0.00270698 10.1423 0.0101868 14.4671 0 18.7959C0.0222967 19.074 -0.0454481 19.3812 0.125302 19.6206C0.205941 19.7818 0.374413 19.8509 0.530774 19.8997C1.06703 19.9288 1.59382 19.8107 2.12324 19.7524C3.19377 19.6253 4.26429 19.4744 5.3274 19.3571C5.52565 19.3221 5.74576 19.3179 5.89871 19.1619C6.20458 18.9652 6.17745 18.5466 6.18914 18.2184C6.18029 15.4776 6.18029 12.7311 6.18301 9.98673C6.63664 9.93279 7.08769 9.87471 7.53649 9.81549C7.54794 12.5863 7.52573 15.3646 7.54794 18.1361C7.51411 18.516 7.76464 18.9026 8.13912 18.951C8.49524 18.9652 8.84607 18.8971 9.19135 18.8527C10.3978 18.707 11.6077 18.5466 12.8129 18.3996C12.9848 18.3749 13.1567 18.3697 13.3173 18.2964C13.5563 18.2038 13.7203 17.9496 13.718 17.6854C13.7155 13.1521 13.7203 8.61321 13.7155 4.07907C13.7582 3.64889 13.3342 3.25435 12.92 3.3511C12.2664 3.39976 11.6207 3.51857 10.9672 3.58609C7.5587 4.02626 4.14852 4.45437 0.736717 4.88549H0.736716ZM21.189 2.29178C19.5767 2.45906 17.9362 2.9907 16.7149 4.13376C15.6619 5.16348 15.0743 6.6692 15.1067 8.16342C15.0743 9.07771 15.2449 10.0305 15.7481 10.8028C16.0689 11.3448 16.5814 11.7359 17.1488 11.9781C16.1901 13.6171 15.228 15.2532 14.2592 16.8897C14.0918 17.1829 14.0621 17.5739 14.2815 17.8425C14.4352 18.1055 14.7777 18.1556 15.0533 18.1163C16.7175 17.9007 18.385 17.6854 20.0529 17.4813C20.3257 17.4559 20.6337 17.3778 20.7625 17.1001C21.0779 16.5235 21.3325 15.914 21.6413 15.3213C21.6478 15.7178 21.6325 16.1117 21.673 16.5042C21.6845 16.8466 21.979 17.1385 22.2987 17.1684C22.4916 17.1728 22.6798 17.1487 22.8675 17.1233C24.1978 16.9435 25.5343 16.7881 26.8709 16.6157C27.107 16.5816 27.3705 16.5531 27.5582 16.3753C27.7105 16.197 27.7679 15.943 27.7484 15.707C27.7456 11.7212 27.7456 7.73361 27.7484 3.75167C27.7424 3.21041 27.7734 2.66368 27.7227 2.11601C27.682 1.79785 27.3766 1.55909 27.0678 1.56928C26.6115 1.5738 26.1598 1.66622 25.705 1.72015C24.1951 1.91082 22.6968 2.10186 21.189 2.29178ZM39.0472 0H39.333C39.6587 0.0795859 39.9444 0.380391 39.9444 0.739094C39.9614 1.83746 39.9275 2.93752 39.9472 4.0406C39.943 4.5051 39.9771 4.97941 39.8965 5.43788C39.8516 5.7896 39.4852 5.93161 39.1869 5.97442C38.5645 6.07702 37.939 6.12681 37.3126 6.21847C37.3126 8.47724 37.3126 10.7294 37.3126 12.9861C37.3071 13.6019 37.3427 14.2172 37.2869 14.8275C37.2307 15.19 36.8645 15.3894 36.5339 15.3989C35.542 15.5176 34.5482 15.6532 33.5556 15.777C32.9164 15.8425 32.2801 15.9997 31.6387 15.9276C31.4602 15.8971 31.3295 15.7463 31.2407 15.5942C31.1168 15.2928 31.1445 14.955 31.129 14.6382C31.1378 12.0969 31.1378 9.55127 31.1323 7.00546C30.5982 7.06543 30.0686 7.14766 29.535 7.20593C29.2589 7.20719 28.9128 7.24516 28.733 6.9817C28.5047 6.76745 28.5399 6.42497 28.5399 6.14152C28.5521 4.8374 28.5338 3.52876 28.5466 2.22916C28.5623 1.9938 28.5244 1.70544 28.7085 1.53005C28.9551 1.23057 29.3645 1.25282 29.6982 1.19285C32.819 0.80265 35.9356 0.421881 39.0472 0" fill="#121419"/>
</svg>
