<svg width="77" height="22" viewBox="0 0 77 22" fill="none" xmlns="http://www.w3.org/2000/svg">
    <path d="M0 21.7208H6.35723V10.1606L10.8598 16.219L15.2752 10.1606V21.719H21.7205L24.4584 17.1515H31.4327V21.8121H37.7899V6.24634H41.2338V21.7199H47.6792V6.24634H51.1232V17.1524H61.0116V21.7199H67.3688V0.00178977H61.0116V10.9078H57.4804V0H27.7243L21.7205 10.0675V0H15.2752L10.8607 6.15238L6.44538 0H0V21.7208ZM28.0778 11L31.4327 5.40693V11H28.0778ZM69.4879 17.9909C69.4879 19.1095 69.8558 20.0581 70.5915 20.8349C71.3273 21.6116 72.1961 22 73.1963 22C74.2558 22 75.1543 21.6116 75.8892 20.8349C76.625 20.0581 76.9928 19.1408 76.9928 18.0849C77.0522 17.1524 76.7428 16.2664 76.0664 15.427C75.3891 14.5885 74.4618 14.1697 73.2845 14.1697C72.2249 14.1071 71.3273 14.465 70.5915 15.2418C69.8558 16.0185 69.4879 16.9349 69.4879 17.9909ZM70.1067 13.1442L76.4639 9.13505V0.0939635H70.1067V13.1451V13.1442Z" fill="#121419"/>
</svg>
