<svg width="46" height="46" viewBox="0 0 46 46" fill="none" xmlns="http://www.w3.org/2000/svg">
    <path d="M44.2811 15.5097C43.1775 12.8937 41.6002 10.5472 39.5932 8.53376C37.5862 6.52034 35.2471 4.93802 32.6395 3.83088C29.9391 2.68456 27.0775 2.1065 24.1231 2.1065C21.4764 2.1065 18.8981 2.57189 16.4516 3.49287C14.762 1.36677 12.1544 0 9.2293 0C4.13121 0 0 4.14441 0 9.25879C0 12.2275 1.39172 14.8679 3.55499 16.5629C2.68578 18.9585 2.24628 21.4716 2.24628 24.0532C2.24628 27.017 2.82251 29.8878 3.96518 32.5968C5.06879 35.2128 6.64607 37.5593 8.65308 39.5727C10.6601 41.5862 12.9992 43.1685 15.6068 44.2756C18.3072 45.4219 21.1688 46 24.1231 46C27.0775 46 29.9391 45.4219 32.6395 44.2756C35.2471 43.1685 37.5862 41.5862 39.5932 39.5727C41.6002 37.5593 43.1775 35.2128 44.2811 32.5968C45.4238 29.8878 46 27.017 46 24.0532C46 21.0895 45.4238 18.2187 44.2811 15.5097ZM4.98089 12.2471H3.07643V8.81789H1.3673V7.05431H6.49469V5.82961H8.30149V8.03408H10.2548V5.82961H11.9151V7.05431H17.0425V8.91587H15.3822V12.2471H13.6242V8.86688H11.9151V12.2471H10.1571V9.89563H8.49681V12.2471H6.49469V8.86688H4.98089V12.2471ZM7.02696 32.2539C6.9 31.9894 6.7828 31.7248 6.66561 31.4505C5.67919 29.1088 5.17622 26.6202 5.17622 24.0532C5.17622 21.9712 5.50828 19.9382 6.15775 17.9934C7.11975 18.3314 8.15499 18.5176 9.2293 18.5176C14.3274 18.5176 18.4586 14.3732 18.4586 9.25879C18.4586 8.14675 18.2633 7.07881 17.9068 6.09414C19.8943 5.39851 21.9843 5.04579 24.1231 5.04579C25.427 5.04579 26.7113 5.17806 27.9662 5.4377L7.02696 32.2539ZM28.8599 42.463C27.3217 42.8599 25.7395 43.0607 24.1231 43.0607C21.5643 43.0607 19.0837 42.5561 16.7495 41.5666C14.4934 40.6113 12.4669 39.2396 10.7284 37.4907C10.2255 36.9862 9.75669 36.4571 9.3172 35.9035H28.8599V42.463ZM28.8599 32.9691H10.1864L28.8599 9.05793V32.9691ZM37.5227 37.4956C35.8575 39.1661 33.9287 40.4937 31.7898 41.4392V35.9084H38.934C38.4945 36.462 38.0257 36.9911 37.5227 37.4956ZM41.5807 31.4505C41.3609 31.9698 41.1217 32.4743 40.858 32.9691H31.7898V6.66731C33.9287 7.61768 35.8575 8.94526 37.5227 10.6109C39.2611 12.3597 40.6284 14.3928 41.5807 16.656C42.5671 18.9977 43.0701 21.4863 43.0701 24.0532C43.0701 26.6202 42.5671 29.1088 41.5807 31.4505Z" fill="white"/>
</svg>
