<svg width="109" height="24" viewBox="0 0 109 24" fill="none" xmlns="http://www.w3.org/2000/svg">
    <path d="M104.707 23.0573H4.3147C2.44388 23.0573 0.9375 21.5266 0.9375 19.6801V3.3772C0.9375 1.50637 2.46817 0 4.3147 0H104.683C106.554 0 108.06 1.53067 108.06 3.3772V19.6801C108.085 21.5266 106.554 23.0573 104.707 23.0573ZM4.3147 1.19052C3.12418 1.19052 2.15232 2.16238 2.15232 3.3529V19.6558C2.15232 20.8463 3.12418 21.8182 4.3147 21.8182H104.683C105.874 21.8182 106.845 20.8463 106.845 19.6558V3.3529C106.845 2.16238 105.874 1.19052 104.683 1.19052H4.3147Z" fill="#121419"/>
    <path d="M17.1203 10.7649L8.22787 5.61409C7.71764 5.32253 7.08594 5.68698 7.08594 6.27009V16.5475C7.08594 17.1306 7.71764 17.495 8.22787 17.2035L17.1203 12.0769C17.6306 11.7854 17.6306 11.0565 17.1203 10.7649Z" fill="#121419"/>
    <path d="M26.8608 5.81055C27.5897 5.81055 28.2214 5.90773 28.756 6.1264C29.2662 6.34507 29.7035 6.63662 30.0194 6.97677C30.3352 7.34122 30.5782 7.72996 30.724 8.19159C30.8697 8.65323 30.9426 9.11486 30.9426 9.60079C30.9426 10.0867 30.8697 10.5483 30.724 11.01C30.5782 11.4716 30.3352 11.8846 30.0194 12.2248C29.7035 12.5892 29.2662 12.8565 28.756 13.0752C28.2457 13.2938 27.614 13.391 26.8608 13.391H24.1153V17.6429H21.5156V5.81055H26.8608ZM26.1319 11.3744C26.4235 11.3744 26.7151 11.3501 26.9823 11.3015C27.2496 11.2529 27.4925 11.18 27.7112 11.0343C27.9299 10.9128 28.0999 10.7184 28.2214 10.4998C28.3429 10.2568 28.4158 9.96523 28.4158 9.57649C28.4158 9.21204 28.3429 8.89619 28.2214 8.65322C28.0999 8.41026 27.9299 8.24019 27.7112 8.1187C27.4925 7.99722 27.2496 7.90004 26.9823 7.85144C26.7151 7.80285 26.4235 7.77856 26.1319 7.77856H24.1153V11.3258H26.1319V11.3744Z" fill="#121419"/>
    <path d="M39.9564 5.81006C40.4909 5.81006 40.9525 5.90725 41.3898 6.07732C41.8272 6.2474 42.1916 6.49036 42.4832 6.78191C42.7747 7.07347 43.0177 7.43792 43.1878 7.82666C43.3579 8.2154 43.4307 8.65274 43.4307 9.09007C43.4307 9.79467 43.285 10.3778 42.9934 10.888C42.7018 11.3982 42.2159 11.787 41.5599 12.0542V12.0785C41.8758 12.1757 42.143 12.2972 42.3617 12.4916C42.5804 12.6859 42.7504 12.8803 42.8719 13.1476C42.9934 13.4148 43.0906 13.6578 43.1635 13.9736C43.2364 14.2895 43.2607 14.5811 43.285 14.8726C43.285 15.067 43.3093 15.2857 43.3093 15.5286C43.3093 15.7716 43.3336 16.0388 43.3579 16.3061C43.3821 16.5734 43.4307 16.8163 43.4793 17.0593C43.5279 17.3023 43.6251 17.4966 43.7466 17.6667H41.1469C41.0011 17.3023 40.9039 16.8406 40.8796 16.3304C40.8553 15.8202 40.8067 15.3099 40.7338 14.8483C40.6367 14.2409 40.4666 13.7793 40.175 13.4877C39.8835 13.1962 39.4218 13.0504 38.7658 13.0504H36.1661V17.6667H33.5664V5.83436H39.9564V5.81006ZM39.0331 11.1553C39.6405 11.1553 40.0778 11.0338 40.3694 10.7665C40.661 10.4993 40.8067 10.0619 40.8067 9.47882C40.8067 8.8957 40.661 8.48266 40.3694 8.2154C40.0778 7.94814 39.6162 7.82666 39.0331 7.82666H36.1661V11.1553H39.0331Z" fill="#121419"/>
    <path d="M55.383 5.80604V7.99271H49.1388V10.5195H54.8727V12.5361H49.1388V15.4274H55.5287V17.6141H46.5391V5.78174H55.383V5.80604Z" fill="#121419"/>
    <path d="M61.9218 5.81006L64.6916 13.9494H64.7159L67.3399 5.81006H71.0087V17.6424H68.579V9.26015H68.5547L65.6634 17.6424H63.6468L60.7313 9.33304H60.707V17.6424H58.2773V5.81006H61.9218Z" fill="#121419"/>
    <path d="M76.8888 5.81006V17.6424H74.2891V5.81006H76.8888Z" fill="#121419"/>
    <path d="M89.0353 5.80604V7.99271H82.7911V10.5195H88.5251V12.5361H82.7911V15.4274H89.1811V17.6141H80.1914V5.78174H89.0353V5.80604Z" fill="#121419"/>
    <path d="M98.2923 5.81006C98.8268 5.81006 99.2884 5.90725 99.7258 6.07732C100.163 6.2474 100.528 6.49036 100.819 6.78191C101.111 7.07347 101.354 7.43792 101.524 7.82666C101.694 8.2154 101.767 8.65274 101.767 9.09007C101.767 9.79467 101.621 10.3778 101.329 10.888C101.038 11.3982 100.552 11.787 99.8959 12.0542V12.0785C100.212 12.1757 100.479 12.2972 100.698 12.4916C100.916 12.6859 101.086 12.8803 101.208 13.1476C101.329 13.4148 101.427 13.6578 101.499 13.9736C101.572 14.2895 101.597 14.5811 101.621 14.8726C101.621 15.067 101.645 15.2857 101.645 15.5286C101.645 15.7716 101.669 16.0388 101.694 16.3061C101.718 16.5734 101.767 16.8163 101.815 17.0593C101.864 17.3023 101.961 17.4966 102.083 17.6667H99.4828C99.337 17.3023 99.2399 16.8406 99.2156 16.3304C99.1913 15.8202 99.1427 15.3099 99.0698 14.8483C98.9726 14.2409 98.8025 13.7793 98.511 13.4877C98.2194 13.1962 97.7578 13.0504 97.1018 13.0504H94.5021V17.6667H91.9023V5.83436H98.2923V5.81006ZM97.369 11.1553C97.9764 11.1553 98.4138 11.0338 98.7053 10.7665C98.9969 10.4993 99.1427 10.0619 99.1427 9.47882C99.1427 8.8957 98.9969 8.48266 98.7053 8.2154C98.4138 7.94814 97.9521 7.82666 97.369 7.82666H94.5264V11.1553H97.369Z" fill="#121419"/>
</svg>
