<svg width="115" height="28" viewBox="0 0 115 28" fill="none" xmlns="http://www.w3.org/2000/svg">
    <path d="M0.504312 0.527644C0.9905 -0.0180366 1.77358 0.044155 2.43512 0.00202525H113.222C113.446 -0.00907314 113.67 0.0255273 113.88 0.103745C114.09 0.181964 114.283 0.302183 114.445 0.457173C114.608 0.612163 114.738 0.79872 114.828 1.00562C114.917 1.21253 114.964 1.4355 114.966 1.66114C114.966 9.7554 114.974 17.847 114.99 25.9359C115.069 26.7163 114.685 27.587 113.906 27.8418C113.222 27.9922 112.511 27.8979 111.825 27.92C95.3535 27.92 78.8816 27.92 62.4096 27.92C60.688 28.0243 58.9645 27.9842 57.2409 27.9902H16.1062C16.1062 26.3351 16.1062 24.678 16.1062 23.0229C19.095 22.8624 22.0241 21.438 23.8971 19.0688C25.1555 17.5116 25.9377 15.6201 26.1487 13.624C26.1607 13.5156 26.2006 13.0061 26.2085 12.8977C26.7864 12.5266 27.1092 11.8947 26.7684 11.2346C26.6469 11.0238 26.4647 10.8552 26.2459 10.7509C26.027 10.6467 25.782 10.6118 25.543 10.6508C25.2708 10.705 25.0298 10.863 24.8705 11.0918C24.7113 11.3206 24.6459 11.6025 24.6882 11.8786C24.8006 12.2863 25.0517 12.6413 25.3975 12.8817C25.3172 14.2491 24.9571 15.585 24.3399 16.8057C23.7228 18.0264 22.8618 19.1056 21.8109 19.9755C20.6239 20.9549 19.2239 21.6382 17.725 21.9697C16.226 22.3012 14.6705 22.2717 13.1851 21.8834C9.1481 20.9024 5.97194 17.0545 5.89223 12.8416C6.17518 12.5085 6.58565 12.1755 6.53185 11.686C6.53185 10.9718 5.69895 10.394 5.04539 10.705C4.77946 10.8049 4.56185 11.0038 4.4376 11.2608C4.31335 11.5177 4.29196 11.8129 4.37788 12.0852C4.56545 12.365 4.76973 12.6329 4.9896 12.8877C5.14303 13.4896 5.15697 14.1315 5.29645 14.7474C5.62442 16.2327 6.2673 17.6292 7.18107 18.8411C8.09485 20.053 9.25794 21.0518 10.5907 21.7691C11.9977 22.5149 13.5496 22.9421 15.1378 23.0209C15.1378 24.6807 15.1378 26.3398 15.1378 27.9983C10.7023 27.9983 6.26684 27.9983 1.82937 27.9983C1.58569 28.0092 1.34242 27.9687 1.11515 27.8795C0.887892 27.7903 0.681647 27.6542 0.509632 27.4801C0.337617 27.306 0.203626 27.0976 0.116242 26.8683C0.0288578 26.639 -0.00999142 26.3938 0.00218284 26.1486C0.00218284 18.1238 0.00218284 10.0991 0.00218284 2.07441C-0.0157503 1.52271 0.0938413 0.930886 0.510289 0.537675L0.504312 0.527644ZM31.714 5.8701C31.3023 6.51668 31.0706 7.26264 31.0429 8.03015C31.0152 8.79767 31.1926 9.55859 31.5566 10.2335C32.2759 11.5917 33.7684 12.5507 35.3166 12.4785C36.9644 12.5667 38.5047 11.4914 39.22 10.0309C38.6223 10.0189 38.0444 10.0189 37.4566 10.0309C36.8588 10.5485 36.1475 11.0541 35.3166 11.018C33.6687 11.036 32.2739 9.30668 32.6346 7.6877C32.8717 6.22118 34.4438 5.03352 35.9144 5.46284C36.542 5.5792 37.0023 6.04865 37.5204 6.37766C38.0977 6.42514 38.6778 6.43051 39.2559 6.39371C38.9449 5.74216 38.4797 5.17749 37.9013 4.74933C37.3228 4.32116 36.6487 4.04261 35.9383 3.93815C35.1241 3.81649 34.2925 3.93408 33.5431 4.27679C32.7938 4.6195 32.1586 5.17276 31.714 5.8701ZM42.992 4.04046C42.0708 4.29358 41.2599 4.84901 40.6878 5.61872C40.1157 6.38842 39.8151 7.32836 39.8338 8.28955C39.8238 10.2556 41.3581 12.0612 43.265 12.4183C44.0939 12.5186 44.9726 12.5326 45.7557 12.2056C47.3059 11.5917 48.4775 9.99881 48.4257 8.29757C48.4533 7.54344 48.2799 6.79563 47.9235 6.13172C47.5672 5.46782 47.0409 4.912 46.3993 4.52195C45.893 4.21447 45.3301 4.01331 44.7445 3.93056C44.159 3.84782 43.5628 3.8852 42.992 4.04046ZM83.3157 8.48014C83.4373 10.697 85.4896 12.655 87.7253 12.4764C89.3353 12.5206 90.7919 11.4453 91.4972 10.0309C90.8995 10.0209 90.3017 10.0189 89.7039 10.0309C89.14 10.5264 88.4845 11.0059 87.7113 11.0099C86.4919 11.0822 85.3681 10.1794 84.9935 9.04187C84.4316 7.52118 85.5633 5.68954 87.1315 5.43075C88.1278 5.23013 89.0683 5.76979 89.7756 6.41979C90.3555 6.41979 90.9373 6.41979 91.5172 6.40575C91.1399 5.61542 90.5374 4.95614 89.7864 4.51201C89.0355 4.06787 88.1702 3.85901 87.3009 3.91207C85.0253 4.00636 83.0965 6.20312 83.3157 8.49217V8.48014ZM13.9004 4.23105C12.0642 4.62773 10.4154 5.6381 9.22183 7.09788C7.66961 8.96363 7.06188 11.5456 7.4843 13.9289C7.88282 16.6192 9.7379 19.0086 12.1728 20.1481C13.7151 20.8863 15.4725 20.9887 17.1443 20.778C18.2501 20.5785 19.3052 20.1589 20.2478 19.5436C21.1904 18.9284 22.0016 18.1299 22.6338 17.195C23.8513 15.4336 24.2558 13.1826 23.9629 11.0862C23.7777 9.95676 23.3659 8.87718 22.7526 7.91332C22.1393 6.94946 21.3374 6.12153 20.3957 5.48004C19.4541 4.83855 18.3925 4.39697 17.2758 4.18223C16.159 3.96749 15.0105 3.9841 13.9004 4.23105ZM49.7468 12.32H51.2931C51.319 10.2957 51.2393 8.26748 51.3309 6.24325C52.0004 8.28153 52.7138 10.2997 53.3952 12.326C53.8256 12.326 54.256 12.326 54.6884 12.326C55.4356 10.3098 56.0493 8.24541 56.8543 6.25529C56.8543 8.27751 56.8543 10.2997 56.8543 12.322H58.3448C58.3448 9.55545 58.3448 6.78893 58.3448 4.02241C57.6852 4.02241 57.0237 3.9883 56.3661 4.04247C56.1768 4.19093 56.137 4.45374 56.0394 4.66439C55.3818 6.5522 54.7123 8.43801 54.0468 10.3218C53.2956 8.22736 52.5842 6.12488 51.841 4.02441H49.7488C49.7488 6.79093 49.7488 9.55545 49.7488 12.322L49.7468 12.32ZM60.0265 4.02642C60.0385 6.79294 60.0265 9.55946 60.0265 12.326H64.4719C64.4719 11.8244 64.4719 11.3229 64.4719 10.8213C63.5035 10.8213 62.5352 10.8213 61.5668 10.8213C61.5668 10.1807 61.5668 9.54208 61.5668 8.90545C62.4814 8.90545 63.3979 8.90545 64.3145 8.90545C64.3145 8.41193 64.3145 7.91841 64.3145 7.42489C63.3959 7.42489 62.4794 7.42489 61.5628 7.42489C61.5628 6.79695 61.5628 6.16902 61.5727 5.54309C62.5372 5.54309 63.5016 5.54309 64.468 5.54309C64.468 5.0275 64.468 4.51392 64.468 3.99833C62.9835 3.99833 61.497 3.99833 60.0106 3.99833L60.0265 4.02642ZM66.0042 4.02642C66.0042 6.79294 66.0042 9.55946 66.0042 12.326C67.7577 12.2939 69.7782 12.5768 71.2308 11.353C73.1815 9.73199 73.0599 6.3235 71.0155 4.83491C69.551 3.83182 67.678 4.06454 65.9983 4.03244L66.0042 4.02642ZM72.6435 4.02642C73.5401 5.72365 74.4488 7.42088 75.3016 9.14218C75.5008 10.1854 75.3335 11.2727 75.3932 12.334H76.9714C77.0112 11.2667 76.8857 10.1854 77.0311 9.12412C77.864 7.40282 78.7866 5.71362 79.6733 4.02642H77.9577C77.3161 5.23013 76.8857 6.5843 76.1265 7.7198C75.5287 6.49603 74.9549 5.2522 74.3551 4.02642H72.6435ZM92.629 4.01438C92.629 6.78291 92.629 9.55144 92.629 12.32C93.9899 12.32 95.3529 12.32 96.7138 12.32C96.7138 11.8204 96.7138 11.3169 96.7138 10.8193H94.1832C94.1972 8.55236 94.1832 6.28538 94.1832 4.0184L92.629 4.01438ZM97.6463 4.01438C97.6563 5.84001 97.6264 7.66763 97.6583 9.49326C97.6583 10.3298 97.9193 11.2105 98.5848 11.7602C99.1048 12.221 99.7744 12.4742 100.467 12.472C101.16 12.4697 101.828 12.2123 102.345 11.7482C103.263 11.0159 103.287 9.74202 103.269 8.66069C103.164 7.11192 103.341 5.56115 103.231 4.01238H101.721C101.721 5.83198 101.737 7.65159 101.721 9.47119C101.755 10.1352 101.362 10.8534 100.675 10.9838C99.9059 11.1544 99.2025 10.4201 99.2045 9.67381C99.1746 7.786 99.2045 5.89819 99.2045 4.01037L97.6463 4.01438ZM104.993 4.01438C104.993 6.7809 104.993 9.54742 104.993 12.316C106.188 12.2778 107.434 12.4443 108.609 12.1153C109.721 11.8084 110.544 10.6428 110.351 9.4752C110.325 8.70082 109.739 8.13307 109.098 7.80004C109.34 7.60938 109.535 7.36578 109.67 7.08772C109.804 6.80965 109.874 6.5044 109.874 6.1951C109.874 5.8858 109.804 5.58055 109.67 5.30248C109.535 5.02442 109.34 4.78082 109.098 4.59016C107.902 3.74756 106.35 4.09664 104.989 4.01639L104.993 4.01438ZM47.1525 15.6302C45.3592 16.0996 43.9823 17.849 44.0062 19.7288C43.8946 21.8272 45.6003 23.7632 47.6347 24.0501C49.5695 24.3972 51.6497 23.2215 52.3292 21.3578C52.6158 20.6076 52.6895 19.7918 52.5421 19.0018C52.3946 18.2119 52.0318 17.4787 51.4943 16.8844C50.9567 16.2901 50.2656 15.858 49.4981 15.6365C48.7307 15.415 47.9171 15.4128 47.1485 15.6302H47.1525ZM68.7619 19.1149C68.3634 21.3217 69.9854 23.5987 72.1493 24.014C74.0303 24.4413 76.0448 23.386 76.8857 21.6607C76.274 21.6607 75.6642 21.6607 75.0545 21.6708C74.5663 22.0961 74.0144 22.4993 73.3548 22.5776C71.8166 22.8123 70.3122 21.4541 70.2663 19.9134C70.1727 18.4167 71.4619 16.9462 72.9743 16.9803C73.8271 16.9382 74.5683 17.4558 75.1661 17.9954C75.7639 17.9954 76.3437 17.9954 76.9335 17.9834C76.1365 16.3624 74.3671 15.2891 72.5658 15.4937C71.6268 15.5957 70.7465 16.0037 70.0589 16.6555C69.3712 17.3073 68.9137 18.1673 68.756 19.1049L68.7619 19.1149ZM88.7973 15.6502C87.0538 16.1478 85.7088 17.8711 85.7506 19.7107C85.6251 21.6989 87.1454 23.5586 89.0523 23.9819C91.029 24.4915 93.2666 23.368 94.0238 21.4541C94.3347 20.6957 94.4255 19.8641 94.2856 19.0558C94.1457 18.2475 93.7809 17.4958 93.2336 16.888C92.6862 16.2802 91.9788 15.8412 91.1935 15.6221C90.4082 15.403 89.5773 15.4128 88.7973 15.6502ZM31.443 15.6502C31.443 18.396 31.443 21.1425 31.443 23.8896C31.9651 23.8896 32.4871 23.8896 33.0092 23.8896C33.0092 22.8524 33.0092 21.8152 33.0092 20.78C34.0832 20.8262 35.3684 20.8482 36.1096 19.9194C37.2215 18.7157 36.8389 16.4948 35.2867 15.8809C34.0672 15.4496 32.7183 15.7345 31.443 15.6502ZM37.7635 23.8896H39.2659C39.2659 22.8343 39.2659 21.7798 39.2659 20.7259C40.031 21.759 40.7204 22.8424 41.4577 23.8916C42.0927 23.8916 42.7283 23.8916 43.3646 23.8916C42.6094 22.9006 41.912 21.8634 41.1289 20.8823C41.7008 20.6556 42.3245 20.4309 42.7031 19.9154C43.7611 18.6174 43.2411 16.3664 41.6191 15.8167C40.3717 15.4677 39.0527 15.7184 37.7734 15.6362C37.7595 18.3826 37.7734 21.1311 37.7734 23.8796L37.7635 23.8896ZM53.9033 15.6502C53.9033 18.3987 53.9033 21.1458 53.9033 23.8916C55.0132 23.8695 56.131 23.9458 57.2369 23.7913C57.8798 23.6953 58.4874 23.4343 59.0011 23.0334C59.5148 22.6325 59.9174 22.1052 60.17 21.5022C60.9869 19.6666 60.3453 17.191 58.548 16.2019C57.1213 15.4255 55.4516 15.7004 53.8993 15.6502H53.9033ZM61.8637 15.6502C61.8776 17.6123 61.8437 19.5743 61.8756 21.5343C61.9175 22.7381 62.8998 23.7411 64.0236 24.02C65.0199 24.2969 66.0919 23.8435 66.7774 23.1092C67.3751 22.4672 67.4429 21.5484 67.4568 20.7158C67.4568 19.0266 67.4568 17.3394 67.4568 15.6502C66.9255 15.6502 66.3941 15.6502 65.8628 15.6502C65.8408 17.5441 65.8747 19.4399 65.8508 21.3337C65.8926 22.1502 64.986 22.8504 64.2209 22.5374C63.5793 22.3127 63.3182 21.5684 63.3561 20.9325C63.38 19.1711 63.3561 17.4116 63.372 15.6502H61.8557H61.8637ZM77.3918 15.6502C77.3918 16.1518 77.3918 16.654 77.3918 17.1569L78.8743 17.1468C78.8743 19.3938 78.8743 21.6407 78.8743 23.8876H80.4185C80.4185 21.6407 80.4185 19.3931 80.4185 17.1448H81.9727V15.6502C80.4484 15.6502 78.9221 15.6502 77.3998 15.6502H77.3918ZM82.8574 15.6502C82.8574 18.3947 82.8574 21.1405 82.8574 23.8876C83.3715 23.8876 83.8856 23.8876 84.3997 23.8876C84.3997 21.1418 84.3997 18.3947 84.3997 15.6462L82.8574 15.6502ZM95.6278 15.6502C95.6278 18.396 95.6278 21.1431 95.6278 23.8916C96.1499 23.8916 96.67 23.8916 97.192 23.8916C97.202 21.9055 97.182 19.9174 97.192 17.9312C98.3477 19.9174 99.4735 21.9195 100.645 23.8936C101.207 23.8936 101.769 23.8936 102.333 23.8936C102.333 21.1472 102.333 18.4007 102.333 15.6542C101.819 15.6542 101.305 15.6542 100.791 15.6542C100.791 17.6323 100.803 19.6084 100.791 21.5865C99.5951 19.6365 98.535 17.6143 97.3693 15.6522L95.6278 15.6502ZM43.1454 5.58322C44.6359 4.90111 46.4989 5.95235 46.8456 7.5272C47.282 9.15421 45.939 10.9477 44.2752 11.0079C42.988 11.0902 41.7905 10.1112 41.4677 8.88137C41.0791 7.56331 41.8761 6.05467 43.1454 5.58322ZM106.581 5.5451C107.123 5.6093 107.842 5.39263 108.211 5.92427C108.522 6.35559 108.227 6.9755 107.765 7.138C107.375 7.20674 106.981 7.24564 106.585 7.25436C106.585 6.68461 106.585 6.11485 106.585 5.5451H106.581ZM67.5604 5.5451C68.477 5.55713 69.5191 5.5451 70.2384 6.20714C71.3483 7.14804 71.434 9.04989 70.3401 10.0409C69.6188 10.7852 68.5209 10.7933 67.5624 10.8434C67.5624 9.07798 67.5624 7.31254 67.5624 5.54911L67.5604 5.5451ZM14.8688 7.40683C16.3971 7.136 18.0689 7.57134 19.1807 8.68878C19.701 9.17048 20.1091 9.76191 20.3761 10.4208C20.643 11.0797 20.7622 11.7899 20.725 12.5005C20.7887 15.0283 18.6985 17.4558 16.16 17.5862C13.3445 17.8771 10.7083 15.3112 10.7003 12.4985C10.5588 10.061 12.4936 7.76794 14.8688 7.40683ZM106.583 8.72489C107.292 8.77906 108.205 8.54835 108.697 9.22042C109.058 9.65776 108.805 10.3379 108.336 10.5786C107.8 10.8595 107.169 10.8033 106.585 10.8555C106.585 10.1453 106.585 9.43508 106.585 8.72489H106.583ZM47.7562 17.0285C49.1869 16.6995 50.7132 17.7166 51.0161 19.151C51.4146 20.6998 50.2191 22.391 48.6489 22.5756C47.1784 22.7982 45.7517 21.5845 45.5684 20.13C45.3532 18.7257 46.3814 17.2993 47.7602 17.0285H47.7562ZM89.401 17.0485C90.9812 16.6172 92.7127 17.8971 92.8044 19.5342C92.9757 21.1532 91.5172 22.6999 89.9012 22.5976C88.3788 22.5274 87.1295 21.0268 87.271 19.5141C87.3389 18.9356 87.5787 18.3912 87.9592 17.9523C88.3396 17.5134 88.8429 17.2005 89.403 17.0545L89.401 17.0485ZM33.0112 17.1428C33.6807 17.191 34.5315 16.9863 35.0157 17.5882C35.173 17.779 35.2493 18.0246 35.228 18.2717C35.2068 18.5188 35.0897 18.7475 34.9021 18.9083C34.4 19.4038 33.6388 19.2313 33.0072 19.2754C33.0072 18.5652 33.0072 17.853 33.0072 17.1428H33.0112ZM55.4695 17.1428C56.3004 17.1428 57.197 17.1428 57.9104 17.6464C59.1737 18.491 59.3789 20.5152 58.283 21.5825C57.5637 22.3669 56.4439 22.4271 55.4555 22.407C55.4794 20.6516 55.4555 18.8962 55.4695 17.1428ZM39.2619 17.1629C40.0151 17.205 41.0134 16.9342 41.5215 17.6704C42.0336 18.2863 41.6191 19.3055 40.8759 19.476C40.3458 19.5904 39.7999 19.5422 39.2639 19.5502C39.2639 18.7478 39.2639 17.9453 39.2639 17.1528L39.2619 17.1629Z" fill="white"/>
</svg>
