<svg width="63" height="27" viewBox="0 0 63 27" fill="none" xmlns="http://www.w3.org/2000/svg">
    <path fill-rule="evenodd" clip-rule="evenodd" d="M0.359375 0.0891113H63.0003V26.7448H0.359375V0.0891113ZM33.5978 13.5412L39.543 19.8858L39.5411 19.8868H35.9271L35.9165 19.8793C35.9031 19.8824 35.8911 19.8824 35.8805 19.8824H35.8804C35.4831 19.8824 35.1311 19.7058 34.8946 19.4278H34.8934L31.4875 15.7998L28.125 19.3789C27.8885 19.6833 27.5195 19.8768 27.1033 19.8768H27.0843L27.0752 19.8828L23.5274 19.8527L29.397 13.542L23.4403 7.1842L27.0866 7.19326L27.0927 7.19932C27.0962 7.19932 27.0997 7.1989 27.1026 7.19856C27.1047 7.19832 27.1065 7.19811 27.1078 7.19811C27.5128 7.19811 27.8742 7.38222 28.1107 7.6678L31.4883 11.3051L34.8847 7.6678L34.8938 7.6633C35.1322 7.37961 35.4899 7.19549 35.891 7.19549C35.9497 7.19549 36.0008 7.1985 36.0556 7.20601L36.0728 7.1985L39.4844 7.21351L33.5978 13.5412ZM41.7327 20.849C41.7327 20.8494 41.7327 20.8496 41.7327 20.8496L41.732 20.849H41.7327ZM41.7327 20.849H56.7371L56.7358 17.1252H45.483V15.2765L56.7377 15.2753V8.62635C56.7377 8.62635 56.6469 6.02417 54.1606 5.95098C54.1 5.94976 41.7327 5.95098 41.7327 5.95098V9.67658H52.9855V11.5516C52.9855 11.5516 44.3703 11.5455 44.3004 11.5516C43.0458 11.6606 41.8064 12.3952 41.7327 14.242C41.7628 14.1056 41.733 20.7722 41.7327 20.849ZM6.625 14.2724C6.65512 14.1361 6.62534 20.8031 6.625 20.8794C6.625 20.8798 6.625 20.8801 6.625 20.8801V20.8794H21.6301V17.1557H10.3753V15.307L21.6301 15.3057V8.65678C21.6301 8.65678 21.5392 6.05476 19.051 5.98142H6.625V9.70701H17.8797V11.582C17.8797 11.582 9.26452 11.576 9.19459 11.582C7.93817 11.691 6.69872 12.4256 6.625 14.2724Z" fill="white"/>
</svg>
