<svg width="64" height="41" viewBox="0 0 64 41" fill="none" xmlns="http://www.w3.org/2000/svg">
    <path d="M28.623 26.2411C28.623 25.9834 28.7015 25.7315 28.8485 25.5173C28.9955 25.303 29.2044 25.136 29.4489 25.0374C29.6934 24.9388 29.9624 24.913 30.222 24.9633C30.4815 25.0135 30.7199 25.1376 30.907 25.3198C31.0941 25.502 31.2216 25.7342 31.2732 25.9869C31.3248 26.2397 31.2983 26.5016 31.1971 26.7397C31.0958 26.9778 30.9243 27.1812 30.7043 27.3244C30.4842 27.4676 30.2256 27.544 29.9609 27.544C29.6061 27.544 29.2658 27.4067 29.0149 27.1624C28.7639 26.918 28.623 26.5866 28.623 26.2411ZM51.1275 24.1304H47.6983V19.9144H51.1877C52.2688 19.9144 53.2321 20.8524 53.2321 21.9651C53.2321 23.2523 52.2099 24.1304 51.1275 24.1304ZM51.7282 32.3906H47.6983V27.9987H51.7282C53.0501 27.9987 54.075 28.9341 54.075 30.1653C54.075 31.5112 53.113 32.3906 51.7282 32.3906ZM52.5711 36.5481C56.8419 36.5481 59.4282 34.1482 59.4282 30.3986C59.4282 28.1719 58.2856 26.3597 56.181 25.4789C57.8039 24.4249 58.1665 22.9018 58.1665 21.3202C58.1665 17.6891 55.3367 15.8729 51.367 15.8729H39.2772V19.9118H42.7666V32.388H39.2772V36.5455L52.5711 36.5481ZM25.444 15.8729H17.3828V24.1304H12.5099V15.8729H4.45006V19.9118H7.93946V32.388H4.45006V36.5455H12.5099V27.9987H17.3828V36.5481H25.444V32.3906H22.0737V19.9144H25.444V15.8729ZM61.2906 25.3604C62.133 25.9731 62.8167 26.7691 63.2871 27.6847C63.7575 28.6004 64.0016 29.6105 64 30.6344C64 34.0296 62.9149 36.0791 60.9923 37.9539C59.0696 39.8287 55.8786 41 52.0921 41H34.8325V36.1572C36.1912 35.6662 37.3631 34.782 38.1906 33.6234C39.0181 32.4648 39.4617 31.0874 39.4617 29.6761C39.4617 28.2648 39.0181 26.8874 38.1906 25.7288C37.3631 24.5702 36.1912 23.686 34.8325 23.195V7.78986H39.2852V11.6568H43.663V4.27602H21.0515V11.6568H25.444V7.78986H29.8927V23.1911C28.5333 23.6822 27.3609 24.5667 26.533 25.7258C25.7051 26.8849 25.2613 28.2629 25.2613 29.6748C25.2613 31.0867 25.7051 32.4648 26.533 33.6238C27.3609 34.7829 28.5333 35.6674 29.8927 36.1585V41H0V27.9987H3.54693V24.1304H0V11.421H16.4797V0H48.3619V11.421H50.5869C53.893 11.421 57.0801 12.1818 59.1258 13.6463C61.3535 15.2279 62.7383 17.5718 62.7383 20.7938C62.7356 22.1397 62.4332 24.1304 61.2906 25.3604Z" fill="#121419"/>
</svg>
