<svg width="95" height="23" viewBox="0 0 95 23" fill="none" xmlns="http://www.w3.org/2000/svg">
    <path fill-rule="evenodd" clip-rule="evenodd" d="M72.1244 5.74239H69.4352V0.347656L64.466 1.00577L64.4648 22.4026H72.1244C75.8883 22.4026 78.9383 19.5133 78.9383 15.7508V12.5562C78.9383 8.79329 75.8883 5.74239 72.1244 5.74239ZM74.0692 15.3233C74.0692 16.9081 72.9998 17.8483 71.4157 17.8483H69.4516V10.3H71.4157C72.9998 10.3 74.0692 11.2412 74.0692 12.8257V15.3233ZM42.7944 0.431641V5.83091H46.4769V10.2985H42.7944V22.4746H37.715V10.2985H35.7383V5.83091H37.715V1.08999L42.7944 0.431641ZM17.573 8.74495C17.573 10.8885 16.58 12.5962 15.0327 13.8444L19.665 22.4027H13.7172L10.3121 15.2337H5.08848V22.4027L0.00644506 22.3626L0 1.24101L10.7596 1.28278C14.5219 1.28278 17.573 4.04842 17.573 7.81256V8.74495ZM9.66566 10.8384C11.1645 10.8384 12.38 9.98765 12.38 8.48882V8.31838C12.38 6.81907 11.1645 5.76614 9.66566 5.76614H5.08872V10.8384H9.66566ZM57.3362 15.4428V5.83105H62.3509V15.8097C62.3509 19.5731 60.8072 22.6244 55.5356 22.6244H54.5741C49.5689 22.6244 47.9219 19.5731 47.9219 15.8097V5.83105H52.9354V15.4428C52.9354 17.0268 53.5131 18.0976 55.0966 18.0976H55.1752C56.7602 18.0976 57.3362 17.0268 57.3362 15.4428ZM29.0781 5.83105V15.4428C29.0781 17.0268 28.5014 18.0976 26.9169 18.0976H26.8383C25.2548 18.0976 24.6776 17.0268 24.6776 15.4428V5.83105H19.6641V15.8097C19.6641 19.5731 21.3102 22.6244 26.3153 22.6244H27.2776C32.5479 22.6244 34.0921 19.5731 34.0921 15.8097V5.83105H29.0781ZM87.6116 18.4185C90.1904 18.62 91.6572 16.8226 91.6572 16.8226L94.9986 19.0442C94.9986 19.0442 92.7887 22.6496 87.619 22.6496C83.0454 22.6496 80.3555 19.4304 80.3555 15.7579V13.2033V13.0926V12.327C80.3555 8.6567 83.0512 5.59912 87.624 5.59912C92.1983 5.59912 94.8876 8.81854 94.8876 12.4886V13.0926V13.2033V15.3409H85.0522V15.893C85.0522 17.4771 86.0049 18.2935 87.6116 18.4185ZM87.5061 9.02836C86.0383 9.07133 85.0522 10.0025 85.0522 11.5493V11.693H90.192V11.5531C90.192 9.96934 89.1606 9.02836 87.6329 9.02836H87.5061Z" fill="white"/>
</svg>
