<svg width="72" height="25" viewBox="0 0 72 25" fill="none" xmlns="http://www.w3.org/2000/svg">
    <path d="M69.2007 0H50.2553C49.0973 0 48.1484 0.94888 48.1484 2.10684V22.0012C48.1484 23.1752 49.0973 24.108 50.2553 24.108H69.1846C70.3587 24.108 71.2915 23.1591 71.2915 22.0012V2.10684C71.3076 0.94888 70.3587 0 69.2007 0ZM55.5465 22.162C55.5465 22.7088 55.0962 23.1591 54.5494 23.1591H50.4483C49.7085 23.1591 49.0973 22.5641 49.0973 21.8082V8.78116C49.0973 8.45951 49.3546 8.20219 49.6763 8.20219H54.7424C55.1927 8.20219 55.5465 8.55601 55.5465 9.00632V22.162ZM70.3426 21.8082C70.3426 22.548 69.7475 23.1591 68.9916 23.1591H64.5689C64.0221 23.1591 63.5718 22.7088 63.5718 22.162V9.00632C63.5718 8.55601 63.9256 8.20219 64.3759 8.20219H69.7475C70.0692 8.20219 70.3265 8.45951 70.3265 8.78116V21.8082H70.3426Z" fill="white"/>
    <path d="M21.5952 0H2.6498C1.49185 0 0.542969 0.94888 0.542969 2.10684V22.0012C0.542969 23.1752 1.49185 24.108 2.6498 24.108H21.5792C22.7532 24.108 23.686 23.1591 23.686 22.0012V2.10684C23.7021 0.94888 22.7532 0 21.5952 0ZM7.94102 22.162C7.94102 22.7088 7.4907 23.1591 6.94389 23.1591H2.85888C2.11908 23.1591 1.50793 22.5641 1.50793 21.8082V8.78116C1.50793 8.45951 1.76526 8.20219 2.08691 8.20219H7.13688C7.5872 8.20219 7.94102 8.55601 7.94102 9.00632V22.162ZM22.7371 21.8082C22.7371 22.548 22.1421 23.1591 21.3862 23.1591H16.9634C16.4166 23.1591 15.9663 22.7088 15.9663 22.162V9.00632C15.9663 8.55601 16.3201 8.20219 16.7704 8.20219H22.1421C22.4637 8.20219 22.721 8.45951 22.721 8.78116V21.8082H22.7371Z" fill="white"/>
    <path d="M45.396 0H26.4506C25.2926 0 24.3438 0.94888 24.3438 2.10684V22.0012C24.3438 23.1752 25.2926 24.108 26.4506 24.108H45.3799C46.554 24.108 47.4868 23.1591 47.4868 22.0012V2.10684C47.5029 0.94888 46.554 0 45.396 0ZM39.4615 22.4354C39.4615 22.8375 39.1398 23.1591 38.7378 23.1591H33.1249C32.7228 23.1591 32.4012 22.8375 32.4012 22.4354V16.6617C32.4012 16.2596 32.7228 15.938 33.1249 15.938H38.7378C39.1398 15.938 39.4615 16.2596 39.4615 16.6617V22.4354ZM39.4615 7.63929C39.4615 8.04136 39.1398 8.36301 38.7378 8.36301H33.1249C32.7228 8.36301 32.4012 8.04136 32.4012 7.63929V1.68869C32.4012 1.28662 32.7228 0.964963 33.1249 0.964963H38.7378C39.1398 0.964963 39.4615 1.28662 39.4615 1.68869V7.63929Z" fill="white"/>
</svg>
