<svg width="90" height="42" viewBox="0 0 90 42" fill="none" xmlns="http://www.w3.org/2000/svg">
    <path fill-rule="evenodd" clip-rule="evenodd" d="M9.4641 7.21075C9.4641 5.92252 8.42007 4.87849 7.13185 4.87849C5.84362 4.87849 4.79959 5.92252 4.79959 7.21075C4.79959 8.49897 5.84362 9.543 7.13185 9.543C8.41959 9.543 9.4641 8.49897 9.4641 7.21075ZM19.7451 10.6643C19.7451 5.23 15.34 0.824951 9.90575 0.824951C4.47193 0.824951 0.0664062 5.23048 0.0664062 10.6643C0.0664062 16.0986 4.47193 20.5036 9.90575 20.5036C15.34 20.5036 19.7451 16.0986 19.7451 10.6643ZM67.1388 7.14636C67.1388 8.64492 66.4964 9.74332 65.1862 10.4721C65.8105 10.7969 66.0533 10.9753 66.3795 11.3063C67.0682 12.0298 67.3549 12.9121 67.3549 14.0096C67.3549 16.7525 65.4981 18.4909 62.5363 18.4909H55.955V2.84576H62.2726C65.2348 2.84576 67.1388 4.51411 67.1388 7.14636ZM59.0203 5.56625V9.17385H62.0317C63.2875 9.17385 64.0639 8.49277 64.0639 7.37005C64.0639 6.24684 63.2875 5.56625 62.0317 5.56625H59.0203ZM53.4534 2.84576V5.56625H49.344V18.4909H46.2668V5.56625H42.1546V2.84576H53.4534ZM39.643 2.84576V18.4909H36.5686V11.942H31.2426V18.4909H28.1682V2.84576H31.2426V9.23871H36.5682V2.84576H39.643ZM59.0203 11.9167V15.7628H62.2258C63.4864 15.7628 64.2857 15.0193 64.2857 13.826C64.2857 12.6403 63.4864 11.9167 62.2258 11.9167H59.0203ZM39.5634 41.0146V25.3685H28.0781V41.0146H31.152V28.0942H36.4866V41.0141L39.5634 41.0146ZM55.1036 41.018V25.3685H45.4155L45.1751 34.5125C45.0921 37.5062 43.9999 38.2927 42.5824 38.2927H42.0755V41.018H43.4266C46.4791 41.018 48.1479 39.0448 48.2686 34.6427L48.4446 28.0942H52.0226V41.018H55.1036ZM73.0997 33.5476C73.0997 35.7225 73.0105 36.838 72.3513 37.5682C71.8582 38.1134 71.1375 38.4253 70.3611 38.4253C69.586 38.4253 68.8797 38.1129 68.3875 37.5682C67.7999 36.9053 67.6153 35.9867 67.6153 33.7036V32.7306C67.6153 30.7532 67.7765 29.5036 68.3875 28.8001C68.8644 28.2502 69.5655 27.9612 70.3611 27.9612C71.1552 27.9612 71.8734 28.2502 72.3513 28.8001C72.9504 29.4755 73.0997 30.5972 73.0997 32.6233V33.5476ZM70.3611 25.2354C68.7337 25.2354 67.2538 25.7701 66.1134 26.9529C64.9506 28.1686 64.6501 29.4607 64.5643 31.7438H62.1767V25.3685H59.1057V41.0146H62.1767V34.4691H64.5419C64.5872 36.5371 64.8156 38.1134 66.1134 39.4388C67.2266 40.5744 68.6569 41.1558 70.3839 41.1558C72.0785 41.1558 73.5265 40.5797 74.6297 39.4388C76.1788 37.837 76.1786 35.965 76.1783 33.2918V33.1899L76.1784 33.0092C76.1786 32.6552 76.1791 31.9197 76.1783 31.8048C76.1783 29.6553 75.8049 28.14 74.6297 26.9529C73.5013 25.8082 72.069 25.2354 70.3611 25.2354ZM89.9987 36.1503L89.9863 36.8581C89.7932 40.0636 87.1199 41.2917 84.4318 41.1663C82.8994 41.1334 81.5072 40.583 80.416 39.4789C79.6352 38.6914 79.2212 37.8897 79.0266 36.581H79.0333C78.8435 35.5598 78.8421 34.409 78.8421 33.1231V32.5012C78.8421 29.4173 79.175 28.1715 80.3778 26.9577C81.4691 25.8531 82.8613 25.3032 84.3937 25.2702C87.0817 25.1448 89.755 26.3729 89.9482 29.5785L89.9472 30.1093H87.2038C86.9544 27.9144 83.9864 27.2624 82.6395 28.7648C81.8769 29.6038 81.8769 31.2139 81.8769 32.6901V33.5166C81.8769 35.0605 81.9417 35.9662 82.1387 36.5929H82.1368C82.2498 37.0174 82.4201 37.3884 82.6776 37.6717C83.9873 39.1326 87.2439 38.4854 87.2153 36.1503H89.9987ZM71.8325 12.2302H74.1991V21.1486H71.8325V12.2302Z" fill="white"/>
</svg>
