<svg width="100" height="100" viewBox="0 0 100 100" fill="none" xmlns="http://www.w3.org/2000/svg">
    <path d="M0 50L50 100L100 50L50 0L0 50ZM64.5833 72.4537C64.5833 72.4537 59.2593 78.7037 49.537 78.7037C36.3426 78.7037 30.5556 69.9074 28.7037 64.3519C27.5463 60.8797 27.3148 58.5648 27.7778 53.9352C28.4722 48.8426 32.6389 38.1945 47.9167 36.5741C47.9167 36.8056 47.9167 37.037 47.9167 37.2685C47.9167 42.8241 49.0741 48.1481 51.1574 53.0092C48.6111 53.0092 38.1944 53.0092 36.8056 63.4259C35.8796 69.6759 40.2778 76.3889 49.537 76.3889C59.9537 76.3889 60.4167 67.5926 58.1018 65.0463C55.787 62.5 50.9259 65.0463 50.9259 65.0463V58.3333H64.5833V72.4537ZM57.4074 16.6667C61.3426 22.4537 63.6574 29.6296 63.6574 37.2685C63.6574 44.9074 61.3426 52.0833 57.4074 57.8704C53.4722 52.0833 51.1574 44.9074 51.1574 37.2685C51.1574 29.6296 53.4722 22.4537 57.4074 16.6667Z" fill="white"/>
</svg>
