<svg width="266" height="30" viewBox="0 0 266 30" fill="none" xmlns="http://www.w3.org/2000/svg">
<path fill-rule="evenodd" clip-rule="evenodd" d="M17.1887 4.98154C18.3837 6.74544 19.082 8.87339 19.082 11.165C19.082 13.4561 18.3837 15.5845 17.1887 17.3484C15.9937 15.5845 15.2955 13.4561 15.2955 11.165C15.2955 8.87339 15.9937 6.74544 17.1887 4.98154ZM19.3862 21.7391C19.3862 21.7391 17.8124 23.6 14.903 23.6C10.9225 23.6 9.18109 20.9777 8.67299 19.3122C8.35549 18.2691 8.22467 17.5493 8.3893 16.199C8.57353 14.6898 9.82786 11.46 14.4145 10.9749C14.4135 11.0381 14.4076 11.1013 14.4076 11.165C14.4076 12.8025 14.7437 14.3983 15.3807 15.8766C14.6409 15.8442 11.5134 15.8942 11.0616 19.0075C10.7921 20.8645 12.1141 22.8738 14.903 22.8738C18.0442 22.8738 18.1588 20.2319 17.468 19.4818C16.7761 18.7316 15.3116 19.4818 15.3116 19.4818V17.4954H19.3862V21.7391ZM0 15L15 30L30 15L15 0L0 15Z" fill="white"/>
<path fill-rule="evenodd" clip-rule="evenodd" d="M17.1745 9.7251C16.7021 10.5958 16.4258 11.6458 16.4258 12.7766C16.4258 13.9075 16.7021 14.958 17.1745 15.8287C17.6468 14.958 17.9231 13.9075 17.9231 12.7766C17.9231 11.6458 17.6468 10.5958 17.1745 9.7251Z" fill="white"/>
<path d="M38.3605 6.66662L38.291 8.12495L40.3758 8.1944V21.7361L38.291 21.8055L38.43 23.3333H44.6842L44.8232 21.9444L42.53 21.8055V8.33328H48.0198L48.1588 11.1111H49.8265V6.59717L47.9503 6.66662H38.3605Z" fill="white"/>
<path d="M61.2888 14.8606C61.2888 11.5968 59.76 10.208 56.911 10.208C55.3128 10.208 54.1315 10.9024 53.4366 11.3885L53.2281 10.4163H51.9079L51.8384 14.4439H53.4366L53.5061 12.7773C53.923 12.3607 54.8959 11.7357 56.3551 11.7357C58.5092 11.7357 59.2736 12.7079 59.2736 14.93V15.8328C56.0077 16.18 50.7266 16.3883 50.7266 20.1381C50.7266 22.4297 52.3248 23.8185 55.2433 23.8185C58.0923 23.8185 59.0651 22.2213 59.3431 21.8047L59.621 23.4713H62.748L62.8175 22.013L61.2888 21.9436V14.8606ZM59.2041 20.3464C59.1346 20.5548 58.3008 22.2213 55.7992 22.2213C53.784 22.2213 52.7417 21.3881 52.7417 19.7909C52.7417 17.4299 56.0771 17.291 59.2041 17.0827V20.3464Z" fill="white"/>
<path d="M72.5484 16.4591C73.5213 15.9035 74.4942 14.9313 74.4942 13.3341C74.4942 11.3202 72.8264 10.1396 70.1162 10.1396C68.7264 10.1396 67.6146 10.7647 66.9197 11.2508L66.7112 10.4174H65.3909L65.3214 14.1674H66.9197L66.9891 12.7091C67.4061 12.3619 68.3095 11.7369 69.7688 11.7369C71.7145 11.7369 72.5484 12.5008 72.5484 13.7508C72.5484 15.6952 70.6722 16.1813 70.2552 16.2508H68.0315V17.6396H70.1857C71.923 17.6396 73.3128 18.3341 73.3128 19.5841C73.3128 20.9035 71.9925 22.2924 69.6993 22.2924C66.2942 22.2924 65.1824 20.4869 65.1824 20.4869L64.418 21.6674C64.418 21.6674 65.3908 23.8202 69.8383 23.8202C73.3128 23.8202 75.3976 21.8758 75.3976 19.5841C75.3281 17.6397 74.0078 16.8063 72.5484 16.4591Z" fill="white"/>
<path d="M89.2969 12.1529L90.7562 12.0834V10.5557H77.1359L77.0664 12.0834L78.5952 12.1529V21.7362L77.0664 21.8056L77.1359 23.3334H82.0698L82.2088 21.9445L80.68 21.8751V12.1529H87.2121V23.3334H90.7562L90.8952 21.9445L89.2969 21.8751V12.1529Z" fill="white"/>
<path d="M100.481 10.208C97.7018 10.208 96.4509 11.6663 96.173 12.0136L95.9645 10.5552H92.6984L92.6289 12.083L94.1577 12.1524V28.1247L92.6289 28.1941L92.6984 29.7219H97.6323L97.7018 28.2636L96.173 28.1941V22.4302C96.173 22.4302 97.3543 23.6802 100.064 23.6802C104.025 23.6802 106.11 20.4858 106.11 16.3191C106.249 12.2913 104.025 10.208 100.481 10.208ZM99.5085 22.1525C97.4933 22.1525 96.4509 21.1802 96.2424 20.9719V13.5413C96.4509 13.2636 97.4933 11.7358 99.717 11.7358C102.497 11.7358 104.095 12.9163 104.095 16.3191C104.164 19.8608 102.775 22.1525 99.5085 22.1525Z" fill="white"/>
<path d="M114.66 10.208C110.491 10.208 108.268 12.7079 108.268 16.8744C108.268 21.0409 110.422 23.7491 114.66 23.7491C118.76 23.7491 121.053 21.0409 121.053 16.8744C121.053 12.7079 118.83 10.208 114.66 10.208ZM114.66 22.2214C111.742 22.2214 110.422 20.1381 110.422 16.8744C110.422 13.6801 111.742 11.6663 114.66 11.6663C117.579 11.6663 118.899 13.6106 118.899 16.8744C118.899 20.1381 117.579 22.2214 114.66 22.2214Z" fill="white"/>
<path d="M173.308 12.1529L174.767 12.0834V10.5557H170.598L166.011 21.5973L161.494 10.5557H157.186L157.116 12.0834L158.715 12.1529L158.784 12.0834L158.367 21.8751H139.118L138.979 12.1529L140.439 12.0834V10.5557H136.2L131.613 21.5973L127.096 10.5557H122.857L122.788 12.0834L124.386 12.1529L124.456 12.0834L124.039 21.7362L122.51 21.8056L122.649 23.3334H127.096L127.235 21.9445L125.776 21.8751L125.984 13.1251V12.8473L130.64 23.3334H132.586L137.103 12.8473H137.172V13.8195L137.311 23.3334H160.035L160.313 13.1251V12.8473L164.969 23.3334H166.984L171.501 12.8473V13.8195L171.64 23.3334H174.906L174.976 21.9445L173.447 21.8751L173.308 12.1529Z" fill="white"/>
<path d="M188.042 15.7633C188.042 12.0135 186.096 10.208 182.691 10.208C179.008 10.208 176.576 12.6384 176.576 16.9438C176.576 21.3186 179.078 23.7491 183.039 23.7491C186.513 23.7491 187.903 21.5269 187.903 21.5269L186.93 20.4853C186.93 20.4853 185.679 22.1519 183.108 22.1519C180.468 22.1519 178.8 20.5548 178.591 17.3605H187.694C187.764 17.3605 188.042 16.6661 188.042 15.7633ZM186.166 15.9022H178.661C178.869 13.2634 180.259 11.6663 182.761 11.6663C185.054 11.6663 186.235 12.9162 186.235 15.2772C186.166 15.555 186.166 15.9022 186.166 15.9022Z" fill="white"/>
<path d="M202.082 10.5557H191.45L191.381 12.1529L193.535 12.2223C193.465 16.3195 192.979 19.1668 191.659 21.8056H189.713L189.782 27.1529H191.172L191.381 23.4029H202.221L202.43 27.1529H204.028L204.167 21.8056H202.082V10.5557ZM199.998 21.8056H193.396C194.647 19.0973 195.064 16.0418 195.064 12.0834H199.998V21.8056Z" fill="white"/>
<path d="M217.856 12.1529L219.315 12.0834V10.5557H215.91L208.544 20.2084V10.5557H205.069L205 12.0834L206.459 12.1529V23.3334H207.988L215.771 13.1945V21.8751L214.312 22.014V23.3334H219.246L219.385 21.9445L217.856 21.8751V12.1529Z" fill="white"/>
<path d="M260.44 17.0841L259.398 18.1258L263.081 21.8063H232.377H231.891V14.7924C231.891 11.5285 230.362 10.1396 227.513 10.1396C225.915 10.1396 224.733 10.8341 224.038 11.3202L223.83 10.348H222.509L222.44 14.3758H224.038L224.108 12.7091C224.525 12.2924 225.498 11.6674 226.957 11.6674C229.111 11.6674 229.876 12.6396 229.876 14.8619V15.7647C226.609 16.1119 221.328 16.3202 221.328 20.0702C221.328 22.3619 222.926 23.7508 225.845 23.7508C228.694 23.7508 229.667 22.1535 229.945 21.7369L230.64 23.4035H263.151L259.467 27.0841L260.51 28.1258L266 22.6396L260.44 17.0841ZM229.806 20.348C229.737 20.5563 228.903 22.223 226.401 22.223C224.386 22.223 223.343 21.3896 223.343 19.7924C223.343 17.4313 226.679 17.2924 229.806 17.0841V20.348Z" fill="white"/>
</svg>
