<svg xmlns="http://www.w3.org/2000/svg" viewBox="0 0 1064.17 264.66"><defs><style>.cls-1{fill:#fff;}</style></defs><g id="Слой_2" data-name="Слой 2"><g id="Слой_1-2" data-name="Слой 1"><g id="Слой_2-2" data-name="Слой 2"><g id="Layer_1" data-name="Layer 1"><path class="cls-1" d="M147.52,103.84a31.91,31.91,0,0,0-4,15.18,32.68,32.68,0,0,0,4,15.25,31.76,31.76,0,0,0,3.8-15.94A33.3,33.3,0,0,0,147.52,103.84Z"/><path class="cls-1" d="M140.08,92.82c1.61-7.1,4.75-15.23,7.34-19.4,2.77,4.38,6.25,13.78,7.44,19.4a78.31,78.31,0,0,1,1.63,18,62.74,62.74,0,0,0,1.4-12.59,76.72,76.72,0,0,0-2.77-21.1,80.93,80.93,0,0,0-7.68-17.34,84.46,84.46,0,0,0-7.6,17.57,74.15,74.15,0,0,0-2.69,16A91,91,0,0,0,138.37,111,89.13,89.13,0,0,1,140.08,92.82Z"/><path class="cls-1" d="M442.84,108.21,428,93.34h49.83V59.11H393.74L334.64,0,233.89,100.74l-35.4-34.57L132.33,0,0,132.33,132.33,264.66l66.16-66.16L234,164,334.64,264.66l60.89-60.9,2.1.17c21.57,1.64,45.8-.54,60.62-6.78a50.81,50.81,0,0,0,18.84-13.06c14.22-16.15,15.06-47-1-62.25C468.62,114.7,456.35,110.19,442.84,108.21Zm-305.74-34a82.4,82.4,0,0,1,10.42-21c.12.2.33.52.62,1,2.08,3.16,8.07,12.26,10.62,23.11,2.93,12.34,2.85,19.94,1.64,28.6-2.27,15.57-9.63,27.52-12.8,31.53A72.53,72.53,0,0,1,139.84,124a82.49,82.49,0,0,1-5.33-19.39,73.41,73.41,0,0,1,2.59-30.37Zm27.65,97.55a49,49,0,0,1-35.09,14.7c-26.62,0-48.21-20.8-48.21-46.36S103,93.77,129.66,93.77v34.85a27.37,27.37,0,0,0-19.1,7.57,21.64,21.64,0,0,0-3.3,3.91,25.25,25.25,0,0,0,3.3,32.93,27.37,27.37,0,0,0,19.1,7.57,27.65,27.65,0,0,0,19.08-7.6l.07-.08.08-.08a12.72,12.72,0,0,0,.47-18c-.15-.16-.31-.32-.47-.47a13.9,13.9,0,0,0-19.15,0,.09.09,0,0,0-.08.08h0V139.89l35.09.08Zm269.63-64.48c-19.66-1.33-40.38,2.41-52.14,11v-25h38.17ZM278,102.2v.19c0,6.15-4,9.8-24.62,15l-21.72,6a187.39,187.39,0,0,0-19.17,6.41l40-40C273.56,90,278,95.45,278,102.2Zm164.09,51.53c0,8.45-6.94,16.67-30,16.67-21.36,0-27.16-6.52-28.73-10.17H336.72c5.55,28.79,26.74,39.3,52,42.77l-54.09,54.09-54.91-54.9H329.3V165.85H243.39L232.5,155c1.94-.69,4-1.31,6.09-1.88,17.65-4.67,35.64-5.81,53.46-11.34,24.11-7.49,34.17-18.41,34.17-38V102.2c0-10-2.42-19-8.72-26.39-6.92-8.07-19.63-13.51-34.62-16.49L334.64,7.57l51.53,51.54H336.86v88.08h45.57c.58-2.5,5-9.81,29.42-9.81,23.28,0,30.2,6.34,30.2,15.39Z"/><path class="cls-1" d="M560.06,114.36h1.53c16.75,0,23.75-6.71,26.08-9.4a40.37,40.37,0,0,1,2.18,8.45h10.2V83H561.88V93.31h21.27v.14c0,1.53-4.88,7.72-21,7.72-14.93,0-20.47-7.5-20.47-14.57v-.8c0-7.5,4.08-14.64,20.62-14.64,16.9,0,18.87,6.48,19.3,7.72h18.07v-.07c-.29-7.36-5.61-20.54-35.91-20.54h-3.14c-31.17,0-36.71,16.24-36.71,26.8v2C523.93,98,530.71,114.36,560.06,114.36Z"/><path class="cls-1" d="M629.85,59.22l-27.39,54.19h17.26l4.89-9.91h32.85l5.1,9.91h18.28l-29-54.19Zm.8,32.05L640.7,70.94l10.49,20.33Z"/><polygon class="cls-1" points="743.7 100.59 706.04 100.59 743.19 69.12 743.19 59.22 682.73 59.22 682.73 71.74 718.35 71.74 682.14 103.43 682.14 113.41 743.7 113.41 743.7 100.59"/><path class="cls-1" d="M767.3,95.34H791c19.37,0,25.27-8.08,25.27-17.77v-.73c0-9.9-5.75-17.62-25.27-17.62H750.33v54.19h17Zm0-23.81h23.39c5.46,0,7.86,2,7.86,5.75v.22c0,3.71-2.55,5.68-7.86,5.68H767.3Z"/><path class="cls-1" d="M889.34,98.48c0-7-4.73-10.86-10.27-12.46,3.57-1.16,10-4.08,10-11.87v-.88c0-7.79-5.46-14-23.52-14H821.89v54.19h17V94.18H861c8.38,0,11.29,2.91,11.29,9.54V110c0,2,.29,2.76.8,3.42h17.26v-.36c-.51-.88-1-2.26-1-6.63ZM871.42,76.84c0,3-2,5.32-6.84,5.32H838.86V71.53h25.72c4.95,0,6.84,2.4,6.84,5.24Z"/><path class="cls-1" d="M935.13,58.27H932c-34.31,0-38.17,17.12-38.17,26.8v2.19c0,9.54,3.86,27.1,38.17,27.1h3.13c34.17,0,38.1-17.56,38.1-27.1V85.07C973.23,75.39,969.22,58.27,935.13,58.27ZM955.46,86.6c0,6.27-3.72,14.57-21.93,14.57S911.6,92.65,911.6,86.46v-.88c0-6.19,3.28-14.2,21.93-14.2,18.35,0,21.93,8,21.93,14.2Z"/><polygon class="cls-1" points="1040.94 59.22 1022.14 92.94 1003.42 59.22 979.31 59.22 979.31 113.41 995.63 113.41 995.63 75.9 1016.97 113.41 1026.07 113.41 1047.42 75.9 1047.42 113.41 1064.17 113.41 1064.17 59.22 1040.94 59.22"/><polygon class="cls-1" points="568.95 181.15 550.23 147.43 526.12 147.43 526.12 201.62 542.43 201.62 542.43 164.11 563.78 201.62 572.88 201.62 594.22 164.11 594.22 201.62 610.98 201.62 610.98 147.43 587.74 147.43 568.95 181.15"/><polygon class="cls-1" points="636.06 180.13 675.46 180.13 675.46 167.75 636.06 167.75 636.06 159.74 676.41 159.74 676.41 147.43 619.3 147.43 619.3 201.62 677.14 201.62 677.14 189.02 636.06 189.02 636.06 180.13"/><path class="cls-1" d="M720.09,147.43H684.18v54.19h36c31.69,0,38.17-14.71,38.17-26.37v-2.18C758.33,160.9,751.48,147.43,720.09,147.43Zm20.47,27.17c0,5.53-2.55,14-21.78,14H701.15V160.25h17.63c19.52,0,21.78,8.37,21.78,13.91Z"/><rect class="cls-1" x="764.13" y="147.43" width="16.97" height="54.19"/><path class="cls-1" d="M811.46,147.43l-27.39,54.19h17.26l4.88-9.91h32.85l5.1,9.91h18.28l-29-54.19Zm.8,32,10-20.33,10.49,20.33Z"/></g></g></g></g></svg>