<svg width="266" height="30" viewBox="0 0 266 30" fill="none" xmlns="http://www.w3.org/2000/svg">
<path d="M0 15L15.0101 30L30.0202 15L15.0101 0L0 15ZM19.3881 21.7361C19.3881 21.7361 17.7898 23.6111 14.8711 23.6111C10.9101 23.6111 9.17284 20.9722 8.61692 19.3056C8.26946 18.2639 8.19997 17.5695 8.33895 16.1806C8.54742 14.6528 9.79826 11.4583 14.3847 10.9722C14.3847 11.0417 14.3847 11.1111 14.3847 11.1806C14.3847 12.8472 14.7321 14.4444 15.3576 15.9028C14.5932 15.9028 11.4661 15.9028 11.0491 19.0278C10.7711 20.9028 12.0915 22.9167 14.8711 22.9167C17.9982 22.9167 18.1372 20.2778 17.4423 19.5139C16.7474 18.75 15.2881 19.5139 15.2881 19.5139V17.5H19.3881V21.7361ZM17.2338 5.00001C18.4152 6.73612 19.1101 8.88889 19.1101 11.1806C19.1101 13.4722 18.4152 15.625 17.2338 17.3611C16.0525 15.625 15.3576 13.4722 15.3576 11.1806C15.3576 8.88889 16.0525 6.73612 17.2338 5.00001Z" fill="#121419"/>
<path d="M38.3605 6.66662L38.291 8.12495L40.3758 8.1944V21.7361L38.291 21.8055L38.43 23.3333H44.6842L44.8232 21.9444L42.53 21.8055V8.33328H48.0198L48.1588 11.1111H49.8265V6.59717L47.9503 6.66662H38.3605Z" fill="#121419"/>
<path d="M61.2883 14.8606C61.2883 11.5968 59.7595 10.208 56.9105 10.208C55.3123 10.208 54.131 10.9024 53.4361 11.3885L53.2277 10.4163H51.9074L51.8379 14.4439H53.4361L53.5056 12.7773C53.9225 12.3607 54.8954 11.7357 56.3546 11.7357C58.5088 11.7357 59.2731 12.7079 59.2731 14.93V15.8328C56.0072 16.18 50.7261 16.3883 50.7261 20.1381C50.7261 22.4297 52.3243 23.8185 55.2428 23.8185C58.0918 23.8185 59.0646 22.2213 59.3426 21.8047L59.6206 23.4713H62.7475L62.817 22.013L61.2883 21.9436V14.8606ZM59.2036 20.3464C59.1341 20.5548 58.3003 22.2213 55.7987 22.2213C53.7836 22.2213 52.7412 21.3881 52.7412 19.7909C52.7412 17.4299 56.0767 17.291 59.2036 17.0827V20.3464Z" fill="#121419"/>
<path d="M72.5489 16.4591C73.5218 15.9035 74.4947 14.9313 74.4947 13.3341C74.4947 11.3202 72.8269 10.1396 70.1167 10.1396C68.7269 10.1396 67.6151 10.7647 66.9201 11.2508L66.7117 10.4174H65.3913L65.3218 14.1674H66.9201L66.9896 12.7091C67.4066 12.3619 68.31 11.7369 69.7693 11.7369C71.715 11.7369 72.5489 12.5008 72.5489 13.7508C72.5489 15.6952 70.6727 16.1813 70.2557 16.2508H68.032V17.6396H70.1862C71.9235 17.6396 73.3133 18.3341 73.3133 19.5841C73.3133 20.9035 71.993 22.2924 69.6998 22.2924C66.2947 22.2924 65.1829 20.4869 65.1829 20.4869L64.4185 21.6674C64.4185 21.6674 65.3913 23.8202 69.8388 23.8202C73.3133 23.8202 75.3981 21.8758 75.3981 19.5841C75.3286 17.6397 74.0082 16.8063 72.5489 16.4591Z" fill="#121419"/>
<path d="M89.2969 12.1531L90.7562 12.0837V10.5559H77.1359L77.0664 12.0837L78.5952 12.1531V21.7365L77.0664 21.8059L77.1359 23.3337H82.0698L82.2088 21.9448L80.68 21.8753V12.1531H87.2121V23.3337H90.7562L90.8952 21.9448L89.2969 21.8753V12.1531Z" fill="#121419"/>
<path d="M100.481 10.208C97.7018 10.208 96.4509 11.6663 96.173 12.0136L95.9645 10.5552H92.6984L92.6289 12.083L94.1577 12.1524V28.1247L92.6289 28.1941L92.6984 29.7219H97.6323L97.7018 28.2636L96.173 28.1941V22.4302C96.173 22.4302 97.3543 23.6802 100.064 23.6802C104.025 23.6802 106.11 20.4858 106.11 16.3191C106.249 12.2913 104.025 10.208 100.481 10.208ZM99.5085 22.1525C97.4933 22.1525 96.4509 21.1802 96.2424 20.9719V13.5413C96.4509 13.2636 97.4933 11.7358 99.717 11.7358C102.497 11.7358 104.095 12.9163 104.095 16.3191C104.164 19.8608 102.775 22.1525 99.5085 22.1525Z" fill="#121419"/>
<path d="M114.66 10.208C110.491 10.208 108.268 12.7079 108.268 16.8744C108.268 21.0409 110.422 23.7491 114.66 23.7491C118.76 23.7491 121.053 21.0409 121.053 16.8744C121.053 12.7079 118.83 10.208 114.66 10.208ZM114.66 22.2214C111.742 22.2214 110.422 20.1381 110.422 16.8744C110.422 13.6801 111.742 11.6663 114.66 11.6663C117.579 11.6663 118.899 13.6106 118.899 16.8744C118.899 20.1381 117.579 22.2214 114.66 22.2214Z" fill="#121419"/>
<path d="M173.308 12.1531L174.768 12.0837V10.5559H170.598L166.012 21.5976L161.495 10.5559H157.186L157.117 12.0837L158.715 12.1531L158.785 12.0837L158.368 21.8753H139.119L138.98 12.1531L140.439 12.0837V10.5559H136.2L131.614 21.5976L127.097 10.5559H122.858L122.788 12.0837L124.387 12.1531L124.456 12.0837L124.039 21.7365L122.51 21.8059L122.649 23.3337H127.097L127.236 21.9448L125.776 21.8753L125.985 13.1253V12.8476L130.641 23.3337H132.586L137.103 12.8476H137.173V13.8198L137.312 23.3337H160.036L160.314 13.1253V12.8476L164.969 23.3337H166.985L171.502 12.8476V13.8198L171.641 23.3337H174.907L174.976 21.9448L173.447 21.8753L173.308 12.1531Z" fill="#121419"/>
<path d="M188.043 15.7633C188.043 12.0135 186.097 10.208 182.692 10.208C179.009 10.208 176.577 12.6384 176.577 16.9438C176.577 21.3186 179.079 23.7491 183.04 23.7491C186.514 23.7491 187.904 21.5269 187.904 21.5269L186.931 20.4853C186.931 20.4853 185.68 22.1519 183.109 22.1519C180.468 22.1519 178.801 20.5548 178.592 17.3605H187.695C187.765 17.3605 188.043 16.6661 188.043 15.7633ZM186.167 15.9022H178.662C178.87 13.2634 180.26 11.6663 182.762 11.6663C185.055 11.6663 186.236 12.9162 186.236 15.2772C186.167 15.555 186.167 15.9022 186.167 15.9022Z" fill="#121419"/>
<path d="M202.083 10.5559H191.451L191.382 12.1531L193.536 12.2226C193.466 16.3198 192.98 19.167 191.66 21.8059H189.714L189.783 27.1531H191.173L191.382 23.4031H202.222L202.431 27.1531H204.029L204.168 21.8059H202.083V10.5559ZM199.999 21.8059H193.397C194.648 19.0976 195.065 16.042 195.065 12.0837H199.999V21.8059Z" fill="#121419"/>
<path d="M217.856 12.1531L219.315 12.0837V10.5559H215.91L208.544 20.2087V10.5559H205.069L205 12.0837L206.459 12.1531V23.3337H207.988L215.771 13.1948V21.8753L214.312 22.0142V23.3337H219.246L219.385 21.9448L217.856 21.8753V12.1531Z" fill="#121419"/>
<path d="M260.44 17.0841L259.398 18.1258L263.081 21.8063H232.377H231.891V14.7924C231.891 11.5285 230.362 10.1396 227.513 10.1396C225.915 10.1396 224.733 10.8341 224.038 11.3202L223.83 10.348H222.509L222.44 14.3758H224.038L224.108 12.7091C224.525 12.2924 225.498 11.6674 226.957 11.6674C229.111 11.6674 229.876 12.6396 229.876 14.8619V15.7647C226.609 16.1119 221.328 16.3202 221.328 20.0702C221.328 22.3619 222.926 23.7508 225.845 23.7508C228.694 23.7508 229.667 22.1535 229.945 21.7369L230.64 23.4035H263.151L259.467 27.0841L260.51 28.1258L266 22.6396L260.44 17.0841ZM229.806 20.348C229.737 20.5563 228.903 22.223 226.401 22.223C224.386 22.223 223.343 21.3896 223.343 19.7924C223.343 17.4313 226.679 17.2924 229.806 17.0841V20.348Z" fill="#121419"/>
</svg>
