<svg width="983" height="253" viewBox="0 0 983 253" fill="none" xmlns="http://www.w3.org/2000/svg">
<path d="M421.704 103.516L407.629 89.4406H455.131V56.8924H375.08L318.781 0.592773L222.895 96.4781L189.248 63.49L126.35 0.592773L0.335938 126.607L126.35 252.622L189.248 189.724L223.115 156.956L319.001 252.842L377.06 194.783C377.719 194.783 378.379 194.783 379.039 194.783C399.492 196.322 422.583 194.343 436.658 188.405C444.575 185.106 450.293 180.708 454.692 175.869C468.327 160.475 468.986 131.226 453.812 116.711C446.774 109.893 435.119 105.715 422.143 103.735L421.704 103.516ZM130.749 71.1872C133.608 61.7307 139.106 53.3737 140.645 51.1745C140.645 51.1745 140.865 51.6143 141.305 52.0542C143.284 55.133 149.002 63.71 151.421 74.0462C154.28 85.702 154.06 92.9594 152.961 101.316C150.762 116.051 143.724 127.487 140.865 131.226C138.886 128.586 135.587 123.308 133.388 118.47C133.388 118.47 129.429 109.014 128.33 99.9968C127.23 90.7602 127.67 81.5235 130.749 71.1872ZM157.139 163.994C148.782 172.571 136.907 178.069 123.711 178.069C98.4205 178.069 77.7479 158.276 77.7479 133.865C77.7479 109.453 98.2005 89.6606 123.711 89.6606V122.869C117.114 122.869 110.516 125.288 105.458 130.126C104.138 131.226 103.259 132.545 102.379 133.865C95.5615 143.541 96.6611 156.736 105.458 165.093C110.516 169.932 117.114 172.351 123.711 172.351C130.309 172.351 136.687 169.932 141.965 165.093C147.023 160.255 147.023 152.338 141.965 147.5C136.907 142.661 128.769 142.661 123.711 147.5V133.645H157.139V163.994ZM413.786 102.636C395.093 101.316 375.3 104.835 364.084 113.192V89.4406H400.371L413.566 102.636H413.786ZM264.9 97.7976C264.9 103.735 260.942 107.254 241.369 112.312L220.696 118.03C213.879 120.01 207.721 121.989 202.443 124.188L240.489 86.1418C260.502 86.3618 264.68 91.6398 264.68 98.0175L264.9 97.7976ZM421.044 146.84C421.044 154.977 414.446 162.674 392.454 162.674C370.462 162.674 366.504 156.516 365.184 152.998H320.76C326.038 180.488 346.271 190.384 370.242 193.683L318.781 245.144L266.44 192.803H313.723V158.276H231.912L221.576 147.939C223.335 147.28 225.315 146.62 227.294 146.18C244.008 141.782 261.162 140.682 278.095 135.404C300.967 128.367 310.644 117.81 310.644 99.3371V97.7976C310.644 88.341 308.225 79.7641 302.287 72.7267C295.689 65.0295 283.594 59.9713 269.299 57.1123L318.781 7.85015L367.823 56.8924H320.98V140.682H364.304C364.964 138.263 369.143 131.445 392.234 131.445C415.326 131.445 421.044 137.383 421.044 146.18V147.06V146.84Z" fill="white"/>
<path d="M513.507 69.2088H549.134V56.6733H497.453V108.355H513.507V69.2088Z" fill="white"/>
<path d="M555.072 108.354L559.69 98.8979H590.919L595.757 108.354H613.131L585.641 56.8931H564.749L538.578 108.354H555.072ZM575.085 67.8891L584.981 87.2421H565.408L574.865 67.8891H575.085Z" fill="white"/>
<path d="M678.008 92.9596V92.2999C678.008 86.5819 672.95 81.5238 662.834 80.864C672.51 80.2042 676.689 75.1461 676.689 70.3078V69.6481C676.689 62.3907 670.091 56.2329 646.34 56.2329H642.821C624.568 56.2329 611.372 62.6106 611.372 74.2664V75.5859H628.306C628.306 69.2082 636.443 67.6688 645.24 67.6688C654.037 67.6688 659.975 69.4281 659.975 72.0672C659.975 74.9261 656.456 76.0258 648.319 76.0258H633.144V87.2417H648.539C657.116 87.2417 661.294 88.5612 661.294 91.86C661.294 95.3787 656.896 97.358 645.46 97.358C634.024 97.358 628.086 94.719 628.086 88.7811H611.152V89.4409C611.152 103.736 624.567 108.794 643.041 108.794H646.779C672.07 108.794 678.008 101.537 678.008 92.9596Z" fill="white"/>
<path d="M699.555 69.2088H731.224V108.355H747.498V56.6733H683.281V108.355H699.555V69.2088Z" fill="white"/>
<path d="M771.251 91.2007H793.683C812.156 91.2007 817.654 83.5034 817.654 74.2668V73.607C817.654 64.1504 812.156 56.8931 793.683 56.8931H754.977V108.354H771.031V91.2007H771.251ZM771.251 68.5488H793.463C798.741 68.5488 800.94 70.5281 800.94 74.0469C800.94 77.7855 798.521 79.7648 793.463 79.7648H771.251V68.7688V68.5488Z" fill="white"/>
<path d="M860.102 55.793H857.023C824.475 55.793 820.736 72.0671 820.736 81.3037V83.283C820.736 92.2998 824.475 109.014 857.023 109.014H860.102C892.65 109.014 896.389 92.2998 896.389 83.283V81.3037C896.389 72.0671 892.65 55.793 860.102 55.793ZM879.455 82.8432C879.455 88.781 875.936 96.6982 858.563 96.6982C841.189 96.6982 837.67 88.5611 837.67 82.6233V81.7436C837.67 75.8057 840.749 68.3284 858.563 68.3284C876.376 68.3284 879.455 76.0257 879.455 81.7436V82.6233V82.8432Z" fill="white"/>
<path d="M960.383 56.6733L942.349 88.7817L924.536 56.6733H901.664V108.355H917.278V72.5076L937.511 108.355H946.088L966.541 72.5076V108.355H982.375V56.6733H960.383Z" fill="white"/>
<path d="M538.358 172.791L520.545 140.682H497.453V192.144H513.067V156.516L533.3 192.144H542.097L562.33 156.516V192.144H578.384V140.682H556.172L538.358 172.791Z" fill="white"/>
<path d="M601.694 171.691H639.3V160.035H601.694V152.338H640.18V140.682H585.859V192.144H640.839V180.268H601.694V171.691Z" fill="white"/>
<path d="M708.797 140.682H653.157C653.157 162.894 652.717 174.33 650.078 179.828H643.48V200.94H658.875V192.363H701.539V200.94H716.934V179.828H708.577V140.682H708.797ZM692.743 179.828H664.813C667.012 174.77 667.452 163.774 667.452 153.218H692.743V179.828Z" fill="white"/>
<path d="M737.386 174.77V140.682H721.332V192.144H737.386L771.914 158.276V192.144H788.188V140.682H771.914L737.386 174.77Z" fill="white"/>
<path d="M816.779 140.682L790.828 192.144H807.322L811.941 182.687H843.169L848.007 192.144H865.381L837.891 140.682H816.999H816.779ZM817.439 171.251L826.895 151.898L836.791 171.251H817.219H817.439Z" fill="white"/>
</svg>
