<?xml version="1.0" encoding="utf-8"?>
<!-- Generator: Adobe Illustrator 25.2.1, SVG Export Plug-In . SVG Version: 6.00 Build 0)  -->
<svg version="1.1" id="Слой_1" xmlns="http://www.w3.org/2000/svg" xmlns:xlink="http://www.w3.org/1999/xlink" x="0px" y="0px"
	 viewBox="0 0 266.3 30.6" style="enable-background:new 0 0 266.3 30.6;" xml:space="preserve">
<style type="text/css">
	.st0{fill:#FFFFFF;}
</style>
<g id="Layer_2">
	<g id="Layer_1-2">
		<path class="st0" d="M57.7,16.9h4v2.3c-0.2,0.4-1,2.3-4.7,2.3c-3.7,0-6.1-2.4-6.1-6.4c0-3.9,2.1-6,6.4-6c1.2,0,2.4,0.3,3.4,1
			l0.2,2.1h1.6V7.7h-1.3L61,8.6c-1.1-0.7-2.4-1.1-3.8-1.1c-5.2,0-8.4,2.8-8.4,7.6s2.8,8,7.8,8c2.9,0,4.5-1,5.4-1.9l0.3,1.6h1.3v-7.2
			h-5.8V16.9z"/>
		<path class="st0" d="M76.8,15.1c0-2.9-1.5-4.2-4.4-4.2c-1.2,0-2.5,0.4-3.5,1.1l-0.2-0.9h-1.3l-0.1,3.6H69l0.1-1.5
			c0.8-0.6,1.8-1,2.8-1c2.1,0,2.9,0.9,2.9,2.9V16c-3.2,0.3-8.5,0.5-8.5,3.9c0,2.1,1.6,3.3,4.5,3.3c2.8,0,3.8-1.4,4.1-1.8l0.3,1.5
			h3.1l0.1-1.3l-1.5-0.1L76.8,15.1z M74.8,20.1c-0.1,0.2-0.9,1.7-3.4,1.7c-2,0-3-0.7-3-2.2c0-2.1,3.3-2.2,6.4-2.4L74.8,20.1z"/>
		<polygon class="st0" points="88.4,21.4 82.4,21.4 90,12.5 90,11.2 82.1,11.2 80.5,11.2 80.5,11.2 80.4,14.5 81.8,14.5 82,12.6 
			87.4,12.6 79.9,21.5 79.9,22.8 90,22.8 90.1,19.4 88.6,19.3 		"/>
		<path class="st0" d="M99.4,10.9c-2.8,0-4,1.3-4.3,1.6L95,11.2h-3.2l-0.1,1.4l1.5,0.1v14.4l-1.5,0.1l0.1,1.4h4.9l0.1-1.3l-1.5-0.1
			V22c0,0,1.2,1.1,3.9,1.1c4,0,6-2.9,6-6.6C105.2,12.8,102.9,10.9,99.4,10.9z M98.5,21.7c-2,0-3-0.9-3.2-1V14c0.8-1,2.1-1.7,3.5-1.6
			c2.8,0,4.3,1.1,4.3,4.2S101.7,21.7,98.5,21.7L98.5,21.7z"/>
		<path class="st0" d="M109.8,13L109.8,13l-0.2-1.8h-3.1l-0.1,1.4l1.6,0.1v8.6l-1.5,0.1l0.1,1.4h5.1l0.1-1.3l-1.7-0.1v-7.2
			c0,0,0.9-1.8,3-1.8c0.3,0,0.7,0,1,0l0.1,2.2h1.5v-3.4c-0.7-0.2-1.5-0.3-2.2-0.3C110.9,10.9,109.8,13,109.8,13z"/>
		<path class="st0" d="M123.4,10.9c-4.2,0-6.4,2.2-6.4,6s2.2,6.2,6.4,6.2c4.1,0,6.4-2.4,6.4-6.2S127.6,10.9,123.4,10.9z M123.4,21.7
			c-2.9,0-4.2-1.9-4.2-4.8s1.3-4.7,4.2-4.7c2.9,0,4.2,1.7,4.2,4.7S126.3,21.7,123.4,21.7L123.4,21.7z"/>
		<path class="st0" d="M185,14.2c0-2.4-1.2-3.3-3.7-3.3c-2.7,0-4,1.2-4.3,1.4c-0.5-1-1.6-1.4-3.2-1.4c-1.5,0-3,0.5-4,1.5l-0.2-1.1
			h-3.2l-0.1,1.4l1.5,0.1v8.8h-18.1v-7.2c0-2.4-1.2-3.3-3.7-3.3c-2.7,0-4,1.2-4.3,1.4c-0.5-1-1.6-1.4-3.2-1.4c-1.5,0-3,0.5-4,1.5
			l-0.2-1.1h-3.2l-0.1,1.4l1.5,0.1v8.6l-1.5,0.1l0.1,1.4h4.9l0.1-1.3l-1.5-0.1v-7.8c0.9-0.8,2.1-1.2,3.3-1.2c1.5,0,2.2,0.4,2.2,2
			v8.3h3.5l0.1-1.3l-1.5-0.1v-7.2c0-0.2,0-0.4,0-0.6c0.9-0.8,2-1.2,3.2-1.2c1.5,0,2.3,0.4,2.3,2v8.3h22.2v-9.1
			c0.9-0.8,2.1-1.2,3.3-1.2c1.5,0,2.2,0.4,2.2,2v8.3h3.5l0.1-1.3l-1.6-0.1v-7.2c0-0.2,0-0.4,0-0.6c0.9-0.8,2-1.2,3.2-1.2
			c1.5,0,2.3,0.4,2.3,2v8.3h3.5l0.1-1.3l-1.5-0.1L185,14.2z"/>
		<path class="st0" d="M198.9,15.9c0-3.4-1.9-5-5.3-5c-3.7,0-6.1,2.2-6.1,6.1c0,4,2.5,6.1,6.5,6.1c3.5,0,4.9-2,4.9-2l-1-0.9
			c-1,1-2.3,1.6-3.8,1.5c-2.6,0-4.3-1.4-4.5-4.3h9.1C198.8,16.9,198.9,16.4,198.9,15.9z M197,16.1h-7.5c0.2-2.4,1.6-3.8,4.1-3.8
			c2.3,0,3.5,1.1,3.5,3.3C197.1,15.8,197,16.1,197,16.1L197,16.1z"/>
		<path class="st0" d="M212.5,5.5H209l-0.1,1.4l1.5,0.1V12h0c0,0-1.2-1.1-3.9-1.1c-4,0-6,2.4-6,6.2c0,3.6,2.4,6,5.9,6
			c2.8,0,3.9-1.3,4.1-1.6l0.2,1.3h3.2l0.1-1.3l-1.5-0.1L212.5,5.5z M210.5,20.1c-0.8,1-2.1,1.7-3.5,1.6c-2.8,0-4.3-1.6-4.3-4.6
			s1.4-4.7,4.6-4.7c1.2-0.1,2.4,0.3,3.2,1.1L210.5,20.1z"/>
		<path class="st0" d="M218.2,9c0.3,0,0.6-0.1,0.9-0.2c0.5-0.5,0.5-1.2,0-1.6c-0.3-0.2-0.6-0.3-0.9-0.3c-0.3,0-0.6,0.1-0.9,0.3
			c-0.2,0.2-0.4,0.5-0.4,0.8c0,0.3,0.1,0.6,0.4,0.8C217.5,8.9,217.9,9,218.2,9z"/>
		<polygon class="st0" points="219.2,11.2 215.7,11.2 215.6,12.6 217.2,12.7 217.2,21.3 215.6,21.4 215.7,22.8 220.6,22.8 
			220.7,21.5 219.2,21.4 		"/>
		<path class="st0" d="M260.5,17.2l-1.1,0.9l3.7,3.3h-29.9h-0.5v-6.3c0-2.9-1.5-4.2-4.4-4.2c-1.2,0-2.5,0.4-3.5,1.1l-0.2-0.9h-1.3
			l-0.1,3.6h1.6l0.1-1.5c0.8-0.6,1.8-1,2.8-1c2.1,0,2.9,0.9,2.9,2.9V16c-3.2,0.3-8.5,0.5-8.5,3.9c0,2.1,1.6,3.3,4.5,3.3
			c2.8,0,3.8-1.4,4.1-1.8l0.3,1.5h32.1l-3.7,3.3l1.1,0.9l5.5-5L260.5,17.2z M230.7,20.1c-0.1,0.2-0.9,1.7-3.4,1.7c-2,0-3-0.7-3-2.2
			c0-2.1,3.3-2.2,6.4-2.4V20.1z"/>
		<path class="st0" d="M0,15.3l16.6,15l16.6-15l-16.6-15L0,15.3z M21.5,22.1c-1.3,1.2-3.1,1.9-5,1.9c-4.4,0-6.4-2.6-6.9-4.3
			c-0.4-1-0.5-2.1-0.3-3.1c0.2-1.5,1.6-4.7,6.7-5.2c0,0.1,0,0.1,0,0.2c0,1.6,0.4,3.2,1.1,4.7c-0.8,0-4.3,0-4.8,3.1
			c-0.3,1.9,1.2,3.9,4.3,3.9c3.5,0,3.6-2.6,2.8-3.4c-0.8-0.7-2.4,0-2.4,0v-2h4.5V22.1z M19.1,5.3c2.8,3.7,2.8,8.6,0,12.4
			C16.3,13.9,16.3,9,19.1,5.3z"/>
		<path class="st0" d="M19.1,10.1c-1.1,1.9-1.1,4.2,0,6.1C20.2,14.2,20.2,12,19.1,10.1z"/>
	</g>
</g>
</svg>
