<svg width="50" height="50" viewBox="0 0 50 50" fill="none" xmlns="http://www.w3.org/2000/svg">
<path fill-rule="evenodd" clip-rule="evenodd" d="M28.6478 8.30257C30.6396 11.2424 31.8033 14.789 31.8033 18.6083C31.8033 22.4268 30.6396 25.9742 28.6478 28.9141C26.6561 25.9742 25.4924 22.4268 25.4924 18.6083C25.4924 14.789 26.6561 11.2424 28.6478 8.30257ZM32.3104 36.2318C32.3104 36.2318 29.6874 39.3333 24.8383 39.3333C18.2041 39.3333 15.3018 34.9628 14.455 32.1871C13.9258 30.4485 13.7078 29.2489 13.9822 26.9983C14.2892 24.4831 16.3798 19.0999 24.0241 18.2915C24.0225 18.3968 24.0127 18.5022 24.0127 18.6083C24.0127 21.3375 24.5729 23.9972 25.6345 26.4609C24.4014 26.407 19.1889 26.4903 18.436 31.6791C17.9869 34.7741 20.1901 38.1231 24.8383 38.1231C30.0737 38.1231 30.2647 33.7199 29.1133 32.4696C27.9602 31.2194 25.5194 32.4696 25.5194 32.4696V29.159H32.3104V36.2318ZM0 25L25 50L50 25L25 0L0 25Z" fill="#009FE3"/>
<path fill-rule="evenodd" clip-rule="evenodd" d="M28.6228 16.2085C27.8356 17.6596 27.375 19.4096 27.375 21.2944C27.375 23.1792 27.8356 24.93 28.6228 26.3811C29.41 24.93 29.8706 23.1792 29.8706 21.2944C29.8706 19.4096 29.41 17.6596 28.6228 16.2085Z" fill="#009FE3"/>
</svg>
