<svg version="1.2" baseProfile="tiny-ps" xmlns="http://www.w3.org/2000/svg" viewBox="0 0 135 136" width="135" height="135">
	<path fill-rule="evenodd" d="M134.76 37.75L134.76 98.16C134.76 118.66 118.15 135.28 97.65 135.28L37.23 135.28C16.73 135.28 0.12 118.66 0.12 98.16L0.12 37.75C0.12 17.25 16.73 0.63 37.23 0.63L97.65 0.63C118.15 0.63 134.76 17.25 134.76 37.75ZM123.88 37.9C123.89 23.33 112.07 11.51 97.49 11.51L37.39 11.51C22.81 11.51 11 23.33 11 37.9L11 98.01C11 112.58 22.81 124.4 37.39 124.4L97.49 124.4C112.07 124.4 123.88 112.59 123.88 98.01L123.88 37.9Z" fill="currentColor" />
	<path fill-rule="evenodd" d="M102.92 67.96C102.92 87.55 87.04 103.44 67.44 103.44C47.84 103.44 31.96 87.55 31.96 67.96C31.96 48.36 47.84 32.47 67.44 32.47C87.04 32.47 102.92 48.36 102.92 67.96ZM90.58 67.96C90.58 55.17 80.22 44.81 67.44 44.81C54.66 44.81 44.3 55.17 44.3 67.96C44.3 80.74 54.66 91.1 67.44 91.1C80.22 91.1 90.58 80.74 90.58 67.96Z" fill="currentColor" />
	<path d="M112.09 31.29C112.09 35.69 108.53 39.25 104.13 39.25C99.73 39.25 96.17 35.69 96.17 31.29C96.17 26.9 99.73 23.33 104.13 23.33C108.53 23.33 112.09 26.9 112.09 31.29Z" fill="currentColor" />
</svg>
