<svg viewBox="0 0 20 20" fill="none" xmlns="http://www.w3.org/2000/svg">
<path d="M10.0869 0C7.13889 0 4.74913 2.25165 4.74913 5.02911C4.74913 7.80665 7.13889 10.0584 10.0869 10.0584C13.0349 10.0584 15.4246 7.80665 15.4246 5.02911C15.4246 2.25165 13.0349 0 10.0869 0ZM10.0869 7.10818C8.86829 7.10818 7.88038 6.17732 7.88038 5.02919C7.88038 3.88105 8.86829 2.95026 10.0869 2.95026C11.3055 2.95026 12.2934 3.88105 12.2934 5.02919C12.2934 6.17732 11.3055 7.10818 10.0869 7.10818ZM11.9714 14.1528L15.1969 17.1649C15.7642 17.6984 15.7649 18.5642 15.1985 19.0987C14.6322 19.6331 13.7134 19.6339 13.146 19.1002L10.0145 16.227L7.17021 19.0817C6.88544 19.36 6.50557 19.5 6.12532 19.5C5.76263 19.5 5.39964 19.3728 5.118 19.117C4.54098 18.5927 4.52425 17.7271 5.08065 17.1834L8.14231 14.1688C5.9455 13.7682 4.6121 12.79 4.54342 12.7381C3.91812 12.2656 3.81767 11.405 4.31915 10.8157C4.82055 10.2266 5.73391 10.132 6.35937 10.6044C6.37258 10.6144 7.76725 11.6016 10.0144 11.603C12.2616 11.6016 13.6274 10.6144 13.6406 10.6044C14.2661 10.132 15.1794 10.2266 15.6809 10.8157C16.1823 11.405 16.0819 12.2656 15.4566 12.7381C15.3888 12.7892 14.1083 13.7427 11.9714 14.1528Z" fill="currentColor"/>
</svg>
