<svg viewBox="0 0 20 20" fill="none" xmlns="http://www.w3.org/2000/svg">
<path fill-rule="evenodd" clip-rule="evenodd" d="M14.788 17.8344C15.0295 18.0054 15.3407 18.0481 15.6182 17.9431C15.8957 17.8374 16.0997 17.6004 16.1612 17.3131C16.8129 14.2501 18.3939 6.49737 18.9871 3.71111C19.0321 3.50111 18.9571 3.28286 18.7921 3.14261C18.6271 3.00236 18.3984 2.96186 18.1944 3.03761C15.0497 4.20161 5.3652 7.83537 1.40679 9.30012C1.15555 9.39312 0.992049 9.63462 1.0003 9.89937C1.0093 10.1649 1.18779 10.3951 1.44504 10.4724C3.22025 11.0034 5.55045 11.7421 5.55045 11.7421C5.55045 11.7421 6.63942 15.0309 7.20716 16.7034C7.27841 16.9134 7.44265 17.0784 7.6594 17.1354C7.87539 17.1916 8.10639 17.1324 8.26763 16.9801C9.17961 16.1191 10.5896 14.7879 10.5896 14.7879C10.5896 14.7879 13.2685 16.7521 14.788 17.8344ZM6.53067 11.3266L7.78989 15.4801L8.06964 12.8499C8.06964 12.8499 12.9348 8.46162 15.7082 5.96036C15.7892 5.88686 15.8005 5.76386 15.733 5.67761C15.6662 5.59136 15.5432 5.57111 15.451 5.62961C12.2365 7.68237 6.53067 11.3266 6.53067 11.3266Z" fill="currentColor"/>
</svg>
