<svg viewBox="0 0 20 20" fill="none" xmlns="http://www.w3.org/2000/svg">
<path d="M19 4.73175C18.3379 5.02534 17.6257 5.22391 16.8788 5.31259C17.6414 4.85569 18.2267 4.13275 18.5029 3.2699C17.7893 3.6932 16.9986 4.00028 16.1578 4.16579C15.4842 3.44836 14.5244 3 13.4616 3C11.4225 3 9.76866 4.65381 9.76866 6.69292C9.76866 6.98237 9.80143 7.26411 9.86477 7.53456C6.79565 7.38061 4.07436 5.91049 2.25282 3.67557C1.935 4.22088 1.75269 4.85569 1.75269 5.53236C1.75269 6.81327 2.40512 7.94409 3.39548 8.60617C2.79042 8.58717 2.2206 8.4211 1.72294 8.14376C1.72267 8.15946 1.72267 8.17516 1.72267 8.19058C1.72267 9.9799 2.99614 11.4723 4.68521 11.8113C4.37565 11.8962 4.04875 11.9411 3.71248 11.9411C3.47397 11.9411 3.24291 11.9182 3.01763 11.8752C3.48747 13.3421 4.85101 14.4098 6.46736 14.4398C5.20325 15.4305 3.61113 16.0207 1.88047 16.0207C1.58303 16.0207 1.28835 16.0033 1 15.9689C2.63343 17.0171 4.57505 17.6282 6.66042 17.6282C13.453 17.6282 17.1677 12.0011 17.1677 7.12063C17.1677 6.96062 17.1641 6.80116 17.157 6.64307C17.8791 6.12256 18.5051 5.47232 19 4.73175Z" fill="currentColor"/>
</svg>
